<?xml version="1.0" encoding="UTF-8" standalone="no"?>
<!-- Created with Inkscape (http://www.inkscape.org/) -->

<svg
   xmlns:ns2="http://ns.adobe.com/AdobeIllustrator/10.0/"
   xmlns:dc="http://purl.org/dc/elements/1.1/"
   xmlns:cc="http://creativecommons.org/ns#"
   xmlns:rdf="http://www.w3.org/1999/02/22-rdf-syntax-ns#"
   xmlns:svg="http://www.w3.org/2000/svg"
   xmlns="http://www.w3.org/2000/svg"
   xmlns:sodipodi="http://sodipodi.sourceforge.net/DTD/sodipodi-0.dtd"
   xmlns:inkscape="http://www.inkscape.org/namespaces/inkscape"
   width="22"
   height="22"
   id="svg4275"
   version="1.1"
   inkscape:version="0.92.1 r15371"
   sodipodi:docname="start-here.svg">
  <defs
     id="defs4277" />
  <sodipodi:namedview
     id="base"
     pagecolor="#ffffff"
     bordercolor="#666666"
     borderopacity="1.0"
     inkscape:pageopacity="0"
     inkscape:pageshadow="2"
     inkscape:zoom="22.627417"
     inkscape:cx="26.340269"
     inkscape:cy="11.630326"
     inkscape:document-units="px"
     inkscape:current-layer="g4614"
     showgrid="false"
     inkscape:window-width="1366"
     inkscape:window-height="685"
     inkscape:window-x="0"
     inkscape:window-y="28"
     inkscape:window-maximized="1"
     inkscape:snap-global="true"
     inkscape:snap-bbox="true"
     inkscape:bbox-nodes="true"
     inkscape:object-paths="true"
     inkscape:snap-intersection-paths="true"
     inkscape:snap-smooth-nodes="true"
     inkscape:snap-bbox-edge-midpoints="true"
     inkscape:snap-bbox-midpoints="true"
     inkscape:bbox-paths="true"
     showborder="true"
     inkscape:showpageshadow="false"
     inkscape:snap-nodes="false"
     inkscape:snap-others="false">
    <inkscape:grid
       type="xygrid"
       id="grid4292"
       empspacing="4"
       visible="true"
       enabled="true"
       snapvisiblegridlinesonly="true" />
  </sodipodi:namedview>
  <metadata
     id="metadata4280">
    <rdf:RDF>
      <cc:Work
         rdf:about="">
        <dc:format>image/svg+xml</dc:format>
        <dc:type
           rdf:resource="http://purl.org/dc/dcmitype/StillImage" />
        <dc:title />
      </cc:Work>
    </rdf:RDF>
  </metadata>
  <g
     inkscape:label="Layer 1"
     inkscape:groupmode="layer"
     id="layer1"
     transform="translate(0,-1030.3622)">
    <g
       id="g4614">
      <g
         id="g1181">
        <path
           clip-path="none"
           style="fill:#dfdbd2;fill-opacity:1"
           d="m 11,1032.3622 c -4.9705927,0 -9,4.0293 -9,9 0,4.9703 4.0294073,9 9,9 4.970529,0 9,-4.0297 9,-9 0,-4.9707 -4.029471,-9 -9,-9 z m 1.503906,2.4336 3.496093,2.0664 -3.5,2.0664 0.0039,-4.1328 z M 11,1035.8583 c 0.256408,0 0.507134,0.02 0.753907,0.055 v 0.7657 c -0.245411,-0.04 -0.49675,-0.063 -0.753907,-0.063 -1.9991434,0 -3.708815,1.2251 -4.4101562,2.9686 L 5.941406,1039.2019 C 6.783423,1037.239 8.7336315,1035.8582 11,1035.8582 Z m 0,1.871 c 0.256742,0 0.507697,0.031 0.750001,0.082 v 0.7774 c -0.239124,-0.064 -0.49041,-0.098 -0.750001,-0.098 -1.3128854,0 -2.4090012,0.8725 -2.7539064,2.0703 l -0.6718752,-0.3984 C 8.0712193,1038.7487 9.4213532,1037.7292 11,1037.7292 Z m 4.414063,0.3477 c 0.684573,0.9178 1.089843,2.0559 1.089843,3.2852 0,1.2485 -0.420767,2.4032 -1.125,3.3281 l -0.652343,-0.3867 c 0.638316,-0.808 1.019531,-1.8281 1.019531,-2.9414 0,-1.0924 -0.367517,-2.0977 -0.984376,-2.8985 z m -1.628907,0.9648 c 0.527416,0.6309 0.847656,1.4392 0.847656,2.3204 0,0.9012 -0.333962,1.7302 -0.882812,2.3672 l -0.667969,-0.3946 c 0.488274,-0.5127 0.789063,-1.2036 0.789063,-1.9726 0,-0.7472 -0.282589,-1.4239 -0.746094,-1.9336 z m -9.1562495,0.254 3.4960932,2.0664 -3.4999999,2.0664 0.00389,-4.1328 z m 3.6171871,2.8672 c 0.3449052,1.1969 1.441021,2.0664 2.7539064,2.0664 0.25964,0 0.510813,-0.034 0.750001,-0.098 v 0.7812 c -0.242304,0.052 -0.493259,0.082 -0.750001,0.082 -1.579865,0 -2.9298312,-1.0217 -3.4257816,-2.4375 l 0.6718752,-0.3946 z m -1.6562498,0.9765 c 0.7013412,1.7437 2.4110128,2.9688 4.4101562,2.9688 0.254662,0 0.502826,-0.02 0.746094,-0.059 v 0.7617 c -0.243818,0.034 -0.492757,0.055 -0.746094,0.055 -2.2663685,0 -4.216577,-1.3809 -5.058594,-3.3437 z m 5.9101552,0.7227 3.496094,2.0625 -3.5,2.0664 0.0039,-4.1289 z"
           id="path3171-7-3-3-8-7-0-9-6"
           inkscape:connector-curvature="0" />
        <path
           clip-path="none"
           inkscape:connector-curvature="0"
           id="path3681"
           d="M 17.775189,1041.3622 A 6.7751894,7.0704641 0 0 1 11,1048.4326 6.7751894,7.0704641 0 0 1 4.2248106,1041.3622 6.7751894,7.0704641 0 0 1 11,1034.2917 a 6.7751894,7.0704641 0 0 1 6.775189,7.0705 z"
           style="opacity:1;fill:#dfdbd2;fill-opacity:1;stroke:none;stroke-width:58.41855621;stroke-miterlimit:4;stroke-dasharray:none;stroke-opacity:1" />
        <g
           clip-path="none"
           id="Layer_1"
           ns2:layer="yes"
           ns2:dimmedPercent="50"
           ns2:rgbTrio="#4F008000FFFF"
           transform="matrix(0.12533459,0,0,0.11106265,5.5503962,1035.3399)">
          <g
             transform="translate(-5.1087071e-8,-1.5004977e-4)"
             id="g7">
            <path
               ns2:knockout="Off"
               d="m 51.986,57.297 c -1.797,0.025 0.34,0.926 2.686,1.287 0.648,-0.506 1.236,-1.018 1.76,-1.516 -1.461,0.358 -2.948,0.366 -4.446,0.229"
               id="path9"
               inkscape:connector-curvature="0"
               style="fill:#ffffff" />
            <path
               ns2:knockout="Off"
               d="m 61.631,54.893 c 1.07,-1.477 1.85,-3.094 2.125,-4.766 -0.24,1.192 -0.887,2.221 -1.496,3.307 -3.359,2.115 -0.316,-1.256 -0.002,-2.537 -3.612,4.546 -0.496,2.726 -0.627,3.996"
               id="path11"
               inkscape:connector-curvature="0"
               style="fill:#ffffff" />
            <path
               ns2:knockout="Off"
               d="m 65.191,45.629 c 0.217,-3.236 -0.637,-2.213 -0.924,-0.978 0.335,0.174 0.6,2.281 0.924,0.978"
               id="path13"
               inkscape:connector-curvature="0"
               style="fill:#ffffff" />
            <path
               ns2:knockout="Off"
               d="m 45.172,1.399 c 0.959,0.172 2.072,0.304 1.916,0.533 1.049,-0.23 1.287,-0.442 -1.916,-0.533"
               id="path15"
               inkscape:connector-curvature="0"
               style="fill:#ffffff" />
            <path
               ns2:knockout="Off"
               d="M 47.088,1.932 46.41,2.072 47.041,2.016 47.088,1.932"
               id="path17"
               inkscape:connector-curvature="0"
               style="fill:#ffffff" />
            <path
               ns2:knockout="Off"
               d="m 76.992,46.856 c 0.107,2.906 -0.85,4.316 -1.713,6.812 l -1.553,0.776 c -1.271,2.468 0.123,1.567 -0.787,3.53 -1.984,1.764 -6.021,5.52 -7.313,5.863 -0.943,-0.021 0.639,-1.113 0.846,-1.541 -2.656,1.824 -2.131,2.738 -6.193,3.846 L 60.16,65.878 C 50.142,70.591 36.226,61.251 36.409,48.507 c -0.107,0.809 -0.304,0.607 -0.526,0.934 -0.517,-6.557 3.028,-13.143 9.007,-15.832 5.848,-2.895 12.704,-1.707 16.893,2.197 -2.301,-3.014 -6.881,-6.209 -12.309,-5.91 -5.317,0.084 -10.291,3.463 -11.951,7.131 -2.724,1.715 -3.04,6.611 -4.227,7.507 -1.597,11.737 3.004,16.808 10.787,22.773 1.225,0.826 0.345,0.951 0.511,1.58 -2.586,-1.211 -4.954,-3.039 -6.901,-5.277 1.033,1.512 2.148,2.982 3.589,4.137 -2.438,-0.826 -5.695,-5.908 -6.646,-6.115 4.203,7.525 17.052,13.197 23.78,10.383 -3.113,0.115 -7.068,0.064 -10.566,-1.229 -1.469,-0.756 -3.467,-2.322 -3.11,-2.615 9.182,3.43 18.667,2.598 26.612,-3.771 2.021,-1.574 4.229,-4.252 4.867,-4.289 -0.961,1.445 0.164,0.695 -0.574,1.971 2.014,-3.248 -0.875,-1.322 2.082,-5.609 l 1.092,1.504 c -0.406,-2.696 3.348,-5.97 2.967,-10.234 0.861,-1.304 0.961,1.403 0.047,4.403 1.268,-3.328 0.334,-3.863 0.66,-6.609 0.352,0.923 0.814,1.904 1.051,2.878 -0.826,-3.216 0.848,-5.416 1.262,-7.285 -0.408,-0.181 -1.275,1.422 -1.473,-2.377 0.029,-1.65 0.459,-0.865 0.625,-1.271 -0.324,-0.186 -1.174,-1.451 -1.691,-3.877 0.375,-0.57 1.002,1.478 1.512,1.562 -0.328,-1.929 -0.893,-3.4 -0.916,-4.88 -1.49,-3.114 -0.527,0.415 -1.736,-1.337 -1.586,-4.947 1.316,-1.148 1.512,-3.396 2.404,3.483 3.775,8.881 4.404,11.117 -0.48,-2.726 -1.256,-5.367 -2.203,-7.922 0.73,0.307 -1.176,-5.609 0.949,-1.691 C 83.519,18.706 76.074,10.902 69.225,7.24 70.063,8.007 71.121,8.97 70.741,9.121 67.335,7.093 67.934,6.935 67.446,6.078 64.671,4.949 64.489,6.169 62.651,6.08 57.421,3.306 56.413,3.601 51.6,1.863 l 0.219,1.023 c -3.465,-1.154 -4.037,0.438 -7.782,0.004 -0.228,-0.178 1.2,-0.644 2.375,-0.815 -3.35,0.442 -3.193,-0.66 -6.471,0.122 0.808,-0.567 1.662,-0.942 2.524,-1.424 -2.732,0.166 -6.522,1.59 -5.352,0.295 -4.456,1.988 -12.37,4.779 -16.811,8.943 l -0.14,-0.933 c -2.035,2.443 -8.874,7.296 -9.419,10.46 l -0.544,0.127 c -1.059,1.793 -1.744,3.825 -2.584,5.67 -1.385,2.36 -2.03,0.908 -1.833,1.278 -2.724,5.523 -4.077,10.164 -5.246,13.97 0.833,1.245 0.02,7.495 0.335,12.497 -1.368,24.704 17.338,48.69 37.785,54.228 2.997,1.072 7.454,1.031 11.245,1.141 -4.473,-1.279 -5.051,-0.678 -9.408,-2.197 -3.143,-1.48 -3.832,-3.17 -6.058,-5.102 l 0.881,1.557 c -4.366,-1.545 -2.539,-1.912 -6.091,-3.037 l 0.941,-1.229 C 28.751,98.334 26.418,96.056 25.78,94.795 l -1.548,0.061 c -1.86,-2.295 -2.851,-3.949 -2.779,-5.23 l -0.5,0.891 c -0.567,-0.973 -6.843,-8.607 -3.587,-6.83 -0.605,-0.553 -1.409,-0.9 -2.281,-2.484 l 0.663,-0.758 c -1.567,-2.016 -2.884,-4.6 -2.784,-5.461 0.836,1.129 1.416,1.34 1.99,1.533 -3.957,-9.818 -4.179,-0.541 -7.176,-9.994 L 8.412,66.472 C 7.926,65.74 7.631,64.945 7.24,64.165 l 0.276,-2.75 C 4.667,58.121 6.719,47.409 7.13,41.534 7.415,39.145 9.508,36.602 11.1,32.614 l -0.97,-0.167 c 1.854,-3.234 10.586,-12.988 14.63,-12.486 1.959,-2.461 -0.389,-0.009 -0.772,-0.629 4.303,-4.453 5.656,-3.146 8.56,-3.947 3.132,-1.859 -2.688,0.725 -1.203,-0.709 5.414,-1.383 3.837,-3.144 10.9,-3.846 0.745,0.424 -1.729,0.655 -2.35,1.205 4.511,-2.207 14.275,-1.705 20.617,1.225 7.359,3.439 15.627,13.605 15.953,23.17 l 0.371,0.1 c -0.188,3.802 0.582,8.199 -0.752,12.238 l 0.908,-1.912"
               id="path19"
               inkscape:connector-curvature="0"
               style="fill:#ffffff" />
            <path
               ns2:knockout="Off"
               d="m 32.372,59.764 -0.252,1.26 c 1.181,1.604 2.118,3.342 3.626,4.596 -1.085,-2.118 -1.891,-2.993 -3.374,-5.856"
               id="path21"
               inkscape:connector-curvature="0"
               style="fill:#ffffff" />
            <path
               ns2:knockout="Off"
               d="m 35.164,59.654 c -0.625,-0.691 -0.995,-1.523 -1.409,-2.352 0.396,1.457 1.207,2.709 1.962,3.982 l -0.553,-1.63"
               id="path23"
               inkscape:connector-curvature="0"
               style="fill:#ffffff" />
            <path
               ns2:knockout="Off"
               d="m 84.568,48.916 -0.264,0.662 c -0.484,3.438 -1.529,6.84 -3.131,9.994 1.77,-3.328 2.915,-6.968 3.395,-10.656"
               id="path25"
               inkscape:connector-curvature="0"
               style="fill:#ffffff" />
            <path
               ns2:knockout="Off"
               d="M 45.527,0.537 C 46.742,0.092 48.514,0.293 49.803,0 48.123,0.141 46.451,0.225 44.8,0.438 l 0.727,0.099"
               id="path27"
               inkscape:connector-curvature="0"
               style="fill:#ffffff" />
            <path
               ns2:knockout="Off"
               d="m 2.872,23.219 c 0.28,2.592 -1.95,3.598 0.494,1.889 1.31,-2.951 -0.512,-0.815 -0.494,-1.889"
               id="path29"
               inkscape:connector-curvature="0"
               style="fill:#ffffff" />
            <path
               ns2:knockout="Off"
               d="M 0,35.215 C 0.563,33.487 0.665,32.449 0.88,31.449 -0.676,33.438 0.164,33.862 0,35.215"
               id="path31"
               inkscape:connector-curvature="0"
               style="fill:#ffffff" />
          </g>
        </g>
      </g>
    </g>
  </g>
</svg>
