
<svg xmlns="http://www.w3.org/2000/svg" xmlns:xlink="http://www.w3.org/1999/xlink" width="256px" height="256px" viewBox="0 0 256 256" version="1.1">
<g id="surface1">
<path style=" stroke:none;fill-rule:nonzero;fill:rgb(52.941179%,64.705884%,33.725491%);fill-opacity:1;" d="M 256 128.003906 C 256 198.691406 198.691406 256 128 256 C 57.304688 256 0 198.691406 0 128.003906 C 0 57.308594 57.304688 0 128 0 C 198.691406 0 256 57.308594 256 128.003906 Z M 256 128.003906 "/>
<path style=" stroke:none;fill-rule:nonzero;fill:rgb(100%,100%,100%);fill-opacity:1;" d="M 142.558594 133.257812 C 139.484375 133.300781 143.140625 134.84375 147.15625 135.460938 C 148.265625 134.597656 149.273438 133.71875 150.167969 132.867188 C 147.667969 133.480469 145.125 133.492188 142.558594 133.257812 "/>
<path style=" stroke:none;fill-rule:nonzero;fill:rgb(100%,100%,100%);fill-opacity:1;" d="M 159.070312 129.144531 C 160.902344 126.617188 162.234375 123.847656 162.707031 120.988281 C 162.296875 123.027344 161.1875 124.789062 160.144531 126.648438 C 154.394531 130.265625 159.605469 124.496094 160.140625 122.304688 C 153.960938 130.085938 159.292969 126.96875 159.070312 129.144531 "/>
<path style=" stroke:none;fill-rule:nonzero;fill:rgb(100%,100%,100%);fill-opacity:1;" d="M 165.164062 113.285156 C 165.535156 107.746094 164.074219 109.5 163.582031 111.613281 C 164.15625 111.910156 164.609375 115.515625 165.164062 113.285156 "/>
<path style=" stroke:none;fill-rule:nonzero;fill:rgb(100%,100%,100%);fill-opacity:1;" d="M 130.894531 37.578125 C 132.535156 37.871094 134.441406 38.097656 134.175781 38.488281 C 135.972656 38.09375 136.378906 37.734375 130.894531 37.578125 "/>
<path style=" stroke:none;fill-rule:nonzero;fill:rgb(100%,100%,100%);fill-opacity:1;" d="M 134.175781 38.488281 L 133.015625 38.730469 L 134.09375 38.632812 L 134.175781 38.488281 "/>
<path style=" stroke:none;fill-rule:nonzero;fill:rgb(100%,100%,100%);fill-opacity:1;" d="M 185.363281 115.386719 C 185.546875 120.363281 183.90625 122.773438 182.429688 127.046875 L 179.773438 128.375 C 177.597656 132.601562 179.984375 131.058594 178.425781 134.417969 C 175.027344 137.4375 168.117188 143.867188 165.90625 144.453125 C 164.292969 144.417969 167 142.550781 167.355469 141.816406 C 162.808594 144.9375 163.707031 146.503906 156.753906 148.398438 L 156.550781 147.949219 C 139.402344 156.015625 115.582031 140.027344 115.894531 118.214844 C 115.710938 119.597656 115.375 119.253906 114.996094 119.8125 C 114.109375 108.589844 120.179688 97.316406 130.414062 92.710938 C 140.421875 87.757812 152.160156 89.789062 159.328125 96.472656 C 155.390625 91.3125 147.550781 85.84375 138.257812 86.355469 C 129.15625 86.5 120.644531 92.285156 117.800781 98.5625 C 113.140625 101.5 112.597656 109.878906 110.566406 111.414062 C 107.832031 131.503906 115.707031 140.183594 129.03125 150.394531 C 131.128906 151.808594 129.621094 152.023438 129.90625 153.097656 C 125.480469 151.027344 121.425781 147.898438 118.09375 144.066406 C 119.863281 146.652344 121.769531 149.171875 124.238281 151.148438 C 120.0625 149.734375 114.488281 141.035156 112.859375 140.679688 C 120.054688 153.5625 142.050781 163.269531 153.566406 158.453125 C 148.238281 158.648438 141.46875 158.5625 135.480469 156.347656 C 132.964844 155.054688 129.546875 152.375 130.15625 151.871094 C 145.875 157.746094 162.109375 156.320312 175.707031 145.417969 C 179.167969 142.722656 182.949219 138.140625 184.039062 138.078125 C 182.394531 140.550781 184.320312 139.265625 183.058594 141.449219 C 186.503906 135.890625 181.558594 139.1875 186.621094 131.847656 L 188.492188 134.421875 C 187.796875 129.808594 194.222656 124.203125 193.570312 116.90625 C 195.042969 114.671875 195.214844 119.308594 193.648438 124.441406 C 195.820312 118.746094 194.222656 117.828125 194.777344 113.128906 C 195.382812 114.710938 196.171875 116.390625 196.578125 118.054688 C 195.164062 112.550781 198.03125 108.785156 198.738281 105.585938 C 198.039062 105.277344 196.554688 108.019531 196.21875 101.515625 C 196.265625 98.691406 197.003906 100.035156 197.285156 99.339844 C 196.730469 99.023438 195.277344 96.859375 194.390625 92.707031 C 195.035156 91.730469 196.109375 95.234375 196.980469 95.378906 C 196.417969 92.078125 195.453125 89.558594 195.414062 87.027344 C 192.863281 81.695312 194.511719 87.734375 192.441406 84.738281 C 189.726562 76.269531 194.695312 82.773438 195.027344 78.925781 C 199.144531 84.886719 201.492188 94.125 202.566406 97.953125 C 201.746094 93.289062 200.417969 88.765625 198.796875 84.394531 C 200.046875 84.917969 196.785156 74.792969 200.421875 81.5 C 196.535156 67.203125 183.792969 53.84375 172.066406 47.574219 C 173.503906 48.886719 175.3125 50.535156 174.664062 50.796875 C 168.832031 47.324219 169.859375 47.054688 169.023438 45.585938 C 164.273438 43.652344 163.960938 45.742188 160.816406 45.589844 C 151.863281 40.839844 150.136719 41.347656 141.898438 38.371094 L 142.273438 40.121094 C 136.34375 38.148438 135.363281 40.871094 128.953125 40.128906 C 128.5625 39.824219 131.007812 39.027344 133.019531 38.734375 C 127.285156 39.492188 127.550781 37.605469 121.941406 38.941406 C 123.324219 37.972656 124.785156 37.332031 126.261719 36.503906 C 121.585938 36.789062 115.097656 39.226562 117.101562 37.011719 C 109.472656 40.414062 95.925781 45.191406 88.324219 52.320312 L 88.085938 50.722656 C 84.601562 54.902344 72.894531 63.210938 71.960938 68.625 L 71.03125 68.84375 C 69.21875 71.914062 68.046875 75.390625 66.609375 78.550781 C 64.238281 82.589844 63.132812 80.101562 63.46875 80.738281 C 58.808594 90.191406 56.492188 98.132812 54.492188 104.648438 C 55.917969 106.78125 54.523438 117.480469 55.0625 126.042969 C 52.722656 168.328125 84.742188 209.386719 119.742188 218.867188 C 124.871094 220.699219 132.5 220.628906 138.992188 220.820312 C 131.332031 218.628906 130.34375 219.65625 122.886719 217.058594 C 117.507812 214.523438 116.328125 211.632812 112.515625 208.324219 L 114.023438 210.988281 C 106.550781 208.34375 109.679688 207.714844 103.597656 205.792969 L 105.210938 203.6875 C 102.785156 203.503906 98.792969 199.605469 97.703125 197.445312 L 95.050781 197.550781 C 91.867188 193.621094 90.171875 190.792969 90.292969 188.597656 L 89.4375 190.125 C 88.46875 188.457031 77.726562 175.390625 83.300781 178.433594 C 82.261719 177.484375 80.886719 176.890625 79.394531 174.179688 L 80.53125 172.882812 C 77.847656 169.433594 75.59375 165.007812 75.765625 163.535156 C 77.195312 165.46875 78.1875 165.828125 79.171875 166.160156 C 72.398438 149.351562 72.015625 165.234375 66.886719 149.050781 L 67.972656 148.964844 C 67.140625 147.710938 66.636719 146.351562 65.964844 145.015625 L 66.4375 140.308594 C 61.5625 134.671875 65.074219 116.332031 65.777344 106.277344 C 66.265625 102.1875 69.847656 97.835938 72.574219 91.007812 L 70.914062 90.722656 C 74.085938 85.1875 89.035156 68.492188 95.957031 69.351562 C 99.308594 65.136719 95.289062 69.335938 94.632812 68.273438 C 102 60.652344 104.316406 62.886719 109.285156 61.515625 C 114.648438 58.335938 104.683594 62.757812 107.226562 60.304688 C 116.496094 57.9375 113.796875 54.921875 125.886719 53.71875 C 127.160156 54.445312 122.925781 54.839844 121.863281 55.78125 C 129.585938 52.003906 146.296875 52.863281 157.152344 57.878906 C 169.75 63.765625 183.902344 81.167969 184.460938 97.539062 L 185.097656 97.710938 C 184.773438 104.21875 186.09375 111.746094 183.808594 118.660156 L 185.363281 115.386719 "/>
<path style=" stroke:none;fill-rule:nonzero;fill:rgb(100%,100%,100%);fill-opacity:1;" d="M 108.984375 137.484375 L 108.554688 139.640625 C 110.574219 142.386719 112.179688 145.359375 114.761719 147.507812 C 112.902344 143.882812 111.523438 142.382812 108.984375 137.484375 "/>
<path style=" stroke:none;fill-rule:nonzero;fill:rgb(100%,100%,100%);fill-opacity:1;" d="M 113.765625 137.292969 C 112.695312 136.113281 112.0625 134.6875 111.351562 133.269531 C 112.03125 135.761719 113.417969 137.90625 114.710938 140.085938 L 113.765625 137.292969 "/>
<path style=" stroke:none;fill-rule:nonzero;fill:rgb(100%,100%,100%);fill-opacity:1;" d="M 198.332031 118.914062 L 197.878906 120.046875 C 197.050781 125.933594 195.261719 131.753906 192.519531 137.152344 C 195.550781 131.457031 197.507812 125.226562 198.332031 118.914062 "/>
<path style=" stroke:none;fill-rule:nonzero;fill:rgb(100%,100%,100%);fill-opacity:1;" d="M 131.503906 36.101562 C 133.582031 35.339844 136.617188 35.683594 138.824219 35.183594 C 135.945312 35.421875 133.085938 35.566406 130.257812 35.933594 L 131.503906 36.101562 "/>
<path style=" stroke:none;fill-rule:nonzero;fill:rgb(100%,100%,100%);fill-opacity:1;" d="M 58.488281 74.925781 C 58.96875 79.363281 55.152344 81.085938 59.335938 78.160156 C 61.578125 73.109375 58.457031 76.765625 58.488281 74.925781 "/>
<path style=" stroke:none;fill-rule:nonzero;fill:rgb(100%,100%,100%);fill-opacity:1;" d="M 53.574219 95.460938 C 54.535156 92.503906 54.710938 90.726562 55.078125 89.015625 C 52.414062 92.417969 53.855469 93.144531 53.574219 95.460938 "/>
</g>
</svg>
