
<svg xmlns="http://www.w3.org/2000/svg" xmlns:xlink="http://www.w3.org/1999/xlink" width="24px" height="24px" viewBox="0 0 24 24" version="1.1">
<g id="surface1">
<path style=" stroke:none;fill-rule:nonzero;fill:rgb(52.941179%,64.705884%,33.725491%);fill-opacity:1;" d="M 24 12 C 24 18.628906 18.628906 24 12 24 C 5.371094 24 0 18.628906 0 12 C 0 5.371094 5.371094 0 12 0 C 18.628906 0 24 5.371094 24 12 Z M 24 12 "/>
<path style=" stroke:none;fill-rule:nonzero;fill:rgb(100%,100%,100%);fill-opacity:1;" d="M 13.363281 12.492188 C 13.078125 12.496094 13.417969 12.640625 13.796875 12.699219 C 13.898438 12.617188 13.996094 12.535156 14.078125 12.457031 C 13.84375 12.515625 13.605469 12.515625 13.363281 12.492188 "/>
<path style=" stroke:none;fill-rule:nonzero;fill:rgb(100%,100%,100%);fill-opacity:1;" d="M 14.914062 12.105469 C 15.085938 11.871094 15.210938 11.609375 15.253906 11.34375 C 15.214844 11.535156 15.113281 11.699219 15.011719 11.875 C 14.476562 12.210938 14.964844 11.671875 15.011719 11.464844 C 14.433594 12.195312 14.933594 11.902344 14.914062 12.105469 "/>
<path style=" stroke:none;fill-rule:nonzero;fill:rgb(100%,100%,100%);fill-opacity:1;" d="M 15.484375 10.621094 C 15.519531 10.101562 15.382812 10.265625 15.335938 10.464844 C 15.390625 10.492188 15.433594 10.828125 15.484375 10.621094 "/>
<path style=" stroke:none;fill-rule:nonzero;fill:rgb(100%,100%,100%);fill-opacity:1;" d="M 12.269531 3.523438 C 12.425781 3.550781 12.605469 3.570312 12.578125 3.609375 C 12.746094 3.570312 12.785156 3.539062 12.269531 3.523438 "/>
<path style=" stroke:none;fill-rule:nonzero;fill:rgb(100%,100%,100%);fill-opacity:1;" d="M 12.578125 3.609375 L 12.46875 3.628906 L 12.570312 3.621094 L 12.578125 3.609375 "/>
<path style=" stroke:none;fill-rule:nonzero;fill:rgb(100%,100%,100%);fill-opacity:1;" d="M 17.378906 10.816406 C 17.394531 11.285156 17.242188 11.511719 17.101562 11.910156 L 16.855469 12.035156 C 16.648438 12.429688 16.875 12.285156 16.726562 12.601562 C 16.410156 12.886719 15.761719 13.488281 15.554688 13.542969 C 15.402344 13.539062 15.65625 13.363281 15.691406 13.296875 C 15.261719 13.589844 15.347656 13.734375 14.695312 13.914062 L 14.675781 13.871094 C 13.070312 14.625 10.835938 13.128906 10.863281 11.082031 C 10.847656 11.210938 10.816406 11.179688 10.78125 11.230469 C 10.699219 10.179688 11.265625 9.125 12.226562 8.691406 C 13.164062 8.226562 14.265625 8.417969 14.9375 9.042969 C 14.566406 8.5625 13.832031 8.046875 12.960938 8.097656 C 12.109375 8.109375 11.308594 8.652344 11.042969 9.242188 C 10.605469 9.515625 10.554688 10.300781 10.367188 10.445312 C 10.109375 12.328125 10.847656 13.140625 12.097656 14.097656 C 12.292969 14.230469 12.152344 14.253906 12.179688 14.351562 C 11.765625 14.160156 11.382812 13.867188 11.070312 13.507812 C 11.238281 13.75 11.414062 13.984375 11.648438 14.171875 C 11.257812 14.039062 10.734375 13.222656 10.582031 13.1875 C 11.253906 14.394531 13.316406 15.304688 14.398438 14.855469 C 13.898438 14.875 13.261719 14.863281 12.703125 14.65625 C 12.464844 14.535156 12.144531 14.285156 12.203125 14.238281 C 13.675781 14.789062 15.199219 14.65625 16.472656 13.632812 C 16.796875 13.378906 17.152344 12.949219 17.253906 12.945312 C 17.097656 13.175781 17.28125 13.054688 17.160156 13.261719 C 17.484375 12.738281 17.019531 13.046875 17.496094 12.359375 L 17.671875 12.601562 C 17.605469 12.167969 18.207031 11.644531 18.148438 10.960938 C 18.285156 10.75 18.300781 11.183594 18.15625 11.667969 C 18.359375 11.132812 18.207031 11.046875 18.261719 10.605469 C 18.316406 10.753906 18.390625 10.910156 18.429688 11.066406 C 18.296875 10.550781 18.566406 10.199219 18.632812 9.898438 C 18.566406 9.871094 18.425781 10.125 18.394531 9.515625 C 18.398438 9.253906 18.46875 9.378906 18.496094 9.3125 C 18.445312 9.285156 18.308594 9.082031 18.222656 8.691406 C 18.285156 8.601562 18.386719 8.929688 18.46875 8.941406 C 18.414062 8.632812 18.324219 8.394531 18.320312 8.160156 C 18.082031 7.660156 18.234375 8.226562 18.042969 7.945312 C 17.785156 7.148438 18.253906 7.761719 18.285156 7.398438 C 18.667969 7.957031 18.890625 8.824219 18.992188 9.183594 C 18.914062 8.746094 18.789062 8.320312 18.636719 7.910156 C 18.753906 7.960938 18.449219 7.011719 18.789062 7.640625 C 18.425781 6.300781 17.230469 5.046875 16.132812 4.460938 C 16.265625 4.582031 16.4375 4.738281 16.375 4.761719 C 15.828125 4.4375 15.925781 4.410156 15.847656 4.273438 C 15.402344 4.09375 15.371094 4.289062 15.078125 4.273438 C 14.238281 3.828125 14.074219 3.875 13.304688 3.597656 L 13.339844 3.761719 C 12.78125 3.578125 12.691406 3.832031 12.089844 3.761719 C 12.050781 3.734375 12.28125 3.660156 12.46875 3.632812 C 11.933594 3.703125 11.957031 3.527344 11.433594 3.652344 C 11.5625 3.558594 11.699219 3.5 11.835938 3.421875 C 11.398438 3.449219 10.789062 3.675781 10.976562 3.46875 C 10.261719 3.789062 8.992188 4.238281 8.28125 4.90625 L 8.257812 4.753906 C 7.929688 5.148438 6.832031 5.925781 6.746094 6.433594 L 6.660156 6.453125 C 6.488281 6.742188 6.378906 7.066406 6.246094 7.363281 C 6.023438 7.742188 5.917969 7.507812 5.949219 7.570312 C 5.511719 8.457031 5.296875 9.199219 5.109375 9.8125 C 5.242188 10.011719 5.113281 11.011719 5.164062 11.816406 C 4.941406 15.78125 7.945312 19.628906 11.226562 20.519531 C 11.707031 20.691406 12.421875 20.683594 13.03125 20.703125 C 12.3125 20.496094 12.21875 20.59375 11.519531 20.347656 C 11.015625 20.113281 10.90625 19.839844 10.546875 19.53125 L 10.691406 19.78125 C 9.988281 19.53125 10.28125 19.472656 9.710938 19.292969 L 9.863281 19.09375 C 9.636719 19.078125 9.261719 18.714844 9.160156 18.511719 L 8.910156 18.519531 C 8.613281 18.152344 8.453125 17.886719 8.464844 17.679688 L 8.386719 17.824219 C 8.292969 17.667969 7.285156 16.441406 7.808594 16.726562 C 7.710938 16.640625 7.582031 16.582031 7.441406 16.328125 L 7.550781 16.207031 C 7.296875 15.882812 7.085938 15.46875 7.101562 15.332031 C 7.238281 15.511719 7.332031 15.546875 7.421875 15.578125 C 6.789062 14 6.75 15.492188 6.269531 13.972656 L 6.371094 13.964844 C 6.292969 13.847656 6.246094 13.71875 6.183594 13.59375 L 6.230469 13.152344 C 5.769531 12.625 6.101562 10.90625 6.167969 9.964844 C 6.210938 9.582031 6.546875 9.171875 6.804688 8.53125 L 6.648438 8.503906 C 6.945312 7.984375 8.347656 6.421875 8.996094 6.5 C 9.308594 6.105469 8.933594 6.5 8.871094 6.402344 C 9.5625 5.6875 9.78125 5.894531 10.246094 5.765625 C 10.75 5.46875 9.8125 5.882812 10.050781 5.652344 C 10.921875 5.429688 10.667969 5.148438 11.800781 5.035156 C 11.921875 5.105469 11.523438 5.140625 11.425781 5.230469 C 12.148438 4.875 13.714844 4.957031 14.734375 5.425781 C 15.914062 5.976562 17.242188 7.609375 17.292969 9.144531 L 17.351562 9.160156 C 17.324219 9.769531 17.445312 10.476562 17.230469 11.125 L 17.378906 10.816406 "/>
<path style=" stroke:none;fill-rule:nonzero;fill:rgb(100%,100%,100%);fill-opacity:1;" d="M 10.21875 12.890625 L 10.175781 13.089844 C 10.367188 13.347656 10.515625 13.628906 10.757812 13.828125 C 10.585938 13.488281 10.457031 13.347656 10.21875 12.890625 "/>
<path style=" stroke:none;fill-rule:nonzero;fill:rgb(100%,100%,100%);fill-opacity:1;" d="M 10.664062 12.871094 C 10.566406 12.761719 10.503906 12.625 10.4375 12.492188 C 10.503906 12.726562 10.632812 12.929688 10.753906 13.132812 L 10.664062 12.871094 "/>
<path style=" stroke:none;fill-rule:nonzero;fill:rgb(100%,100%,100%);fill-opacity:1;" d="M 18.59375 11.148438 L 18.550781 11.253906 C 18.472656 11.804688 18.304688 12.351562 18.046875 12.859375 C 18.332031 12.324219 18.515625 11.738281 18.59375 11.148438 "/>
<path style=" stroke:none;fill-rule:nonzero;fill:rgb(100%,100%,100%);fill-opacity:1;" d="M 12.328125 3.382812 C 12.523438 3.3125 12.808594 3.34375 13.015625 3.296875 C 12.746094 3.320312 12.476562 3.335938 12.210938 3.367188 L 12.328125 3.382812 "/>
<path style=" stroke:none;fill-rule:nonzero;fill:rgb(100%,100%,100%);fill-opacity:1;" d="M 5.484375 7.023438 C 5.527344 7.441406 5.171875 7.601562 5.5625 7.328125 C 5.773438 6.855469 5.480469 7.195312 5.484375 7.023438 "/>
<path style=" stroke:none;fill-rule:nonzero;fill:rgb(100%,100%,100%);fill-opacity:1;" d="M 5.023438 8.949219 C 5.113281 8.671875 5.128906 8.503906 5.164062 8.34375 C 4.914062 8.664062 5.046875 8.730469 5.023438 8.949219 "/>
</g>
</svg>
