
<svg xmlns="http://www.w3.org/2000/svg" xmlns:xlink="http://www.w3.org/1999/xlink" width="64px" height="64px" viewBox="0 0 64 64" version="1.1">
<g id="surface1">
<path style=" stroke:none;fill-rule:nonzero;fill:rgb(52.941179%,64.705884%,33.725491%);fill-opacity:1;" d="M 64 32 C 64 49.671875 49.671875 64 32 64 C 14.328125 64 0 49.671875 0 32 C 0 14.328125 14.328125 0 32 0 C 49.671875 0 64 14.328125 64 32 Z M 64 32 "/>
<path style=" stroke:none;fill-rule:nonzero;fill:rgb(100%,100%,100%);fill-opacity:1;" d="M 35.640625 33.316406 C 34.871094 33.324219 35.785156 33.710938 36.789062 33.867188 C 37.066406 33.648438 37.316406 33.429688 37.542969 33.21875 C 36.917969 33.371094 36.28125 33.375 35.640625 33.316406 "/>
<path style=" stroke:none;fill-rule:nonzero;fill:rgb(100%,100%,100%);fill-opacity:1;" d="M 39.765625 32.285156 C 40.226562 31.652344 40.558594 30.960938 40.675781 30.246094 C 40.574219 30.757812 40.296875 31.195312 40.035156 31.660156 C 38.597656 32.566406 39.902344 31.125 40.035156 30.574219 C 38.488281 32.523438 39.824219 31.742188 39.765625 32.285156 "/>
<path style=" stroke:none;fill-rule:nonzero;fill:rgb(100%,100%,100%);fill-opacity:1;" d="M 41.289062 28.320312 C 41.382812 26.9375 41.019531 27.375 40.894531 27.902344 C 41.039062 27.976562 41.152344 28.878906 41.289062 28.320312 "/>
<path style=" stroke:none;fill-rule:nonzero;fill:rgb(100%,100%,100%);fill-opacity:1;" d="M 32.722656 9.394531 C 33.132812 9.46875 33.609375 9.523438 33.542969 9.621094 C 33.992188 9.523438 34.09375 9.433594 32.722656 9.394531 "/>
<path style=" stroke:none;fill-rule:nonzero;fill:rgb(100%,100%,100%);fill-opacity:1;" d="M 33.542969 9.621094 L 33.253906 9.683594 L 33.523438 9.660156 L 33.542969 9.621094 "/>
<path style=" stroke:none;fill-rule:nonzero;fill:rgb(100%,100%,100%);fill-opacity:1;" d="M 46.339844 28.847656 C 46.386719 30.089844 45.976562 30.695312 45.609375 31.761719 L 44.941406 32.09375 C 44.398438 33.148438 44.996094 32.765625 44.605469 33.605469 C 43.757812 34.359375 42.03125 35.96875 41.476562 36.113281 C 41.074219 36.105469 41.75 35.636719 41.839844 35.453125 C 40.703125 36.234375 40.925781 36.625 39.1875 37.101562 L 39.136719 36.988281 C 34.851562 39.003906 28.894531 35.007812 28.972656 29.554688 C 28.929688 29.898438 28.84375 29.8125 28.75 29.953125 C 28.527344 27.148438 30.042969 24.328125 32.601562 23.179688 C 35.105469 21.9375 38.039062 22.449219 39.832031 24.117188 C 38.847656 22.828125 36.886719 21.460938 34.566406 21.589844 C 32.289062 21.625 30.160156 23.070312 29.449219 24.640625 C 28.285156 25.375 28.148438 27.46875 27.640625 27.851562 C 26.957031 32.875 28.925781 35.046875 32.257812 37.597656 C 32.78125 37.953125 32.40625 38.003906 32.476562 38.273438 C 31.371094 37.757812 30.355469 36.972656 29.523438 36.015625 C 29.964844 36.664062 30.441406 37.292969 31.058594 37.785156 C 30.015625 37.433594 28.621094 35.257812 28.214844 35.171875 C 30.015625 38.390625 35.511719 40.816406 38.390625 39.613281 C 37.058594 39.664062 35.367188 39.640625 33.871094 39.085938 C 33.242188 38.765625 32.386719 38.09375 32.539062 37.96875 C 36.46875 39.4375 40.527344 39.078125 43.925781 36.355469 C 44.792969 35.679688 45.738281 34.535156 46.011719 34.519531 C 45.597656 35.136719 46.082031 34.816406 45.765625 35.363281 C 46.625 33.972656 45.390625 34.796875 46.65625 32.960938 L 47.121094 33.605469 C 46.949219 32.453125 48.554688 31.050781 48.390625 29.226562 C 48.761719 28.667969 48.804688 29.828125 48.414062 31.109375 C 48.953125 29.6875 48.554688 29.457031 48.695312 28.28125 C 48.84375 28.675781 49.042969 29.097656 49.144531 29.515625 C 48.792969 28.136719 49.507812 27.195312 49.683594 26.398438 C 49.511719 26.320312 49.140625 27.003906 49.054688 25.378906 C 49.066406 24.671875 49.25 25.007812 49.320312 24.835938 C 49.183594 24.753906 48.820312 24.214844 48.597656 23.175781 C 48.757812 22.933594 49.027344 23.808594 49.246094 23.84375 C 49.105469 23.019531 48.863281 22.390625 48.851562 21.757812 C 48.214844 20.421875 48.628906 21.933594 48.109375 21.183594 C 47.429688 19.066406 48.671875 20.691406 48.757812 19.730469 C 49.785156 21.222656 50.371094 23.53125 50.640625 24.488281 C 50.4375 23.320312 50.105469 22.191406 49.699219 21.097656 C 50.011719 21.230469 49.195312 18.699219 50.105469 20.375 C 49.132812 16.800781 45.949219 13.460938 43.015625 11.894531 C 43.375 12.222656 43.828125 12.632812 43.664062 12.699219 C 42.207031 11.832031 42.464844 11.761719 42.253906 11.398438 C 41.066406 10.914062 40.992188 11.433594 40.203125 11.398438 C 37.964844 10.210938 37.535156 10.335938 35.476562 9.59375 L 35.566406 10.03125 C 34.085938 9.535156 33.839844 10.21875 32.238281 10.03125 C 32.140625 9.957031 32.75 9.757812 33.253906 9.683594 C 31.820312 9.871094 31.886719 9.402344 30.484375 9.734375 C 30.832031 9.492188 31.195312 9.332031 31.566406 9.125 C 30.394531 9.199219 28.773438 9.808594 29.273438 9.253906 C 27.367188 10.101562 23.980469 11.296875 22.082031 13.078125 L 22.019531 12.679688 C 21.152344 13.726562 18.222656 15.800781 17.992188 17.15625 L 17.757812 17.210938 C 17.304688 17.976562 17.011719 18.847656 16.652344 19.636719 C 16.058594 20.648438 15.785156 20.027344 15.867188 20.183594 C 14.703125 22.546875 14.121094 24.535156 13.621094 26.164062 C 13.980469 26.695312 13.632812 29.371094 13.765625 31.511719 C 13.179688 42.082031 21.183594 52.347656 29.933594 54.714844 C 31.21875 55.175781 33.125 55.15625 34.746094 55.203125 C 32.832031 54.65625 32.585938 54.914062 30.722656 54.265625 C 29.375 53.632812 29.082031 52.90625 28.128906 52.082031 L 28.507812 52.746094 C 26.636719 52.085938 27.417969 51.929688 25.898438 51.449219 L 26.300781 50.921875 C 25.695312 50.875 24.699219 49.902344 24.425781 49.363281 L 23.761719 49.386719 C 22.96875 48.40625 22.542969 47.699219 22.574219 47.148438 L 22.359375 47.53125 C 22.117188 47.113281 19.429688 43.847656 20.824219 44.609375 C 20.566406 44.371094 20.222656 44.222656 19.847656 43.546875 L 20.132812 43.222656 C 19.460938 42.359375 18.898438 41.253906 18.941406 40.882812 C 19.296875 41.367188 19.546875 41.457031 19.792969 41.539062 C 18.097656 37.339844 18.003906 41.308594 16.722656 37.261719 L 16.992188 37.242188 C 16.785156 36.929688 16.660156 36.585938 16.492188 36.253906 L 16.609375 35.078125 C 15.390625 33.667969 16.269531 29.082031 16.445312 26.570312 C 16.566406 25.546875 17.460938 24.457031 18.144531 22.753906 L 17.726562 22.679688 C 18.523438 21.296875 22.257812 17.121094 23.988281 17.335938 C 24.828125 16.285156 23.824219 17.332031 23.660156 17.070312 C 25.5 15.164062 26.078125 15.722656 27.320312 15.378906 C 28.660156 14.582031 26.171875 15.691406 26.808594 15.074219 C 29.125 14.484375 28.449219 13.730469 31.472656 13.429688 C 31.789062 13.613281 30.730469 13.710938 30.464844 13.945312 C 32.394531 13 36.574219 13.214844 39.289062 14.46875 C 42.4375 15.941406 45.976562 20.292969 46.113281 24.386719 L 46.273438 24.429688 C 46.195312 26.054688 46.523438 27.9375 45.953125 29.664062 L 46.339844 28.847656 "/>
<path style=" stroke:none;fill-rule:nonzero;fill:rgb(100%,100%,100%);fill-opacity:1;" d="M 27.246094 34.371094 L 27.136719 34.910156 C 27.644531 35.597656 28.042969 36.339844 28.691406 36.875 C 28.226562 35.96875 27.882812 35.597656 27.246094 34.371094 "/>
<path style=" stroke:none;fill-rule:nonzero;fill:rgb(100%,100%,100%);fill-opacity:1;" d="M 28.441406 34.324219 C 28.171875 34.027344 28.015625 33.671875 27.839844 33.316406 C 28.007812 33.941406 28.355469 34.476562 28.679688 35.019531 L 28.441406 34.324219 "/>
<path style=" stroke:none;fill-rule:nonzero;fill:rgb(100%,100%,100%);fill-opacity:1;" d="M 49.582031 29.726562 L 49.46875 30.011719 C 49.261719 31.484375 48.816406 32.9375 48.128906 34.289062 C 48.886719 32.863281 49.378906 31.304688 49.582031 29.726562 "/>
<path style=" stroke:none;fill-rule:nonzero;fill:rgb(100%,100%,100%);fill-opacity:1;" d="M 32.875 9.023438 C 33.394531 8.835938 34.152344 8.921875 34.707031 8.796875 C 33.988281 8.855469 33.269531 8.890625 32.566406 8.984375 L 32.875 9.023438 "/>
<path style=" stroke:none;fill-rule:nonzero;fill:rgb(100%,100%,100%);fill-opacity:1;" d="M 14.621094 18.730469 C 14.742188 19.839844 13.789062 20.269531 14.832031 19.539062 C 15.394531 18.277344 14.613281 19.191406 14.621094 18.730469 "/>
<path style=" stroke:none;fill-rule:nonzero;fill:rgb(100%,100%,100%);fill-opacity:1;" d="M 13.394531 23.867188 C 13.632812 23.125 13.679688 22.679688 13.769531 22.253906 C 13.105469 23.105469 13.464844 23.285156 13.394531 23.867188 "/>
</g>
</svg>
