
<svg xmlns="http://www.w3.org/2000/svg" xmlns:xlink="http://www.w3.org/1999/xlink" width="48px" height="48px" viewBox="0 0 48 48" version="1.1">
<g id="surface1">
<path style=" stroke:none;fill-rule:nonzero;fill:rgb(52.941179%,64.705884%,33.725491%);fill-opacity:1;" d="M 48 24 C 48 37.253906 37.253906 48 24 48 C 10.746094 48 0 37.253906 0 24 C 0 10.746094 10.746094 0 24 0 C 37.253906 0 48 10.746094 48 24 Z M 48 24 "/>
<path style=" stroke:none;fill-rule:nonzero;fill:rgb(100%,100%,100%);fill-opacity:1;" d="M 26.730469 24.984375 C 26.152344 24.996094 26.839844 25.285156 27.59375 25.398438 C 27.800781 25.238281 27.988281 25.074219 28.15625 24.914062 C 27.6875 25.027344 27.210938 25.03125 26.730469 24.984375 "/>
<path style=" stroke:none;fill-rule:nonzero;fill:rgb(100%,100%,100%);fill-opacity:1;" d="M 29.824219 24.214844 C 30.167969 23.742188 30.417969 23.222656 30.507812 22.683594 C 30.429688 23.066406 30.222656 23.398438 30.027344 23.746094 C 28.949219 24.425781 29.925781 23.34375 30.027344 22.933594 C 28.867188 24.390625 29.867188 23.808594 29.824219 24.214844 "/>
<path style=" stroke:none;fill-rule:nonzero;fill:rgb(100%,100%,100%);fill-opacity:1;" d="M 30.96875 21.242188 C 31.039062 20.203125 30.761719 20.53125 30.671875 20.925781 C 30.777344 20.984375 30.863281 21.660156 30.96875 21.242188 "/>
<path style=" stroke:none;fill-rule:nonzero;fill:rgb(100%,100%,100%);fill-opacity:1;" d="M 24.542969 7.046875 C 24.851562 7.101562 25.207031 7.144531 25.15625 7.214844 C 25.496094 7.144531 25.570312 7.074219 24.542969 7.046875 "/>
<path style=" stroke:none;fill-rule:nonzero;fill:rgb(100%,100%,100%);fill-opacity:1;" d="M 25.15625 7.214844 L 24.941406 7.261719 L 25.144531 7.242188 L 25.15625 7.214844 "/>
<path style=" stroke:none;fill-rule:nonzero;fill:rgb(100%,100%,100%);fill-opacity:1;" d="M 34.753906 21.636719 C 34.789062 22.566406 34.484375 23.019531 34.207031 23.820312 L 33.707031 24.070312 C 33.300781 24.863281 33.746094 24.574219 33.453125 25.203125 C 32.816406 25.769531 31.523438 26.976562 31.109375 27.085938 C 30.804688 27.078125 31.3125 26.726562 31.378906 26.589844 C 30.527344 27.175781 30.695312 27.46875 29.390625 27.824219 L 29.351562 27.742188 C 26.136719 29.253906 21.671875 26.253906 21.730469 22.164062 C 21.695312 22.425781 21.632812 22.359375 21.5625 22.464844 C 21.394531 20.359375 22.535156 18.246094 24.453125 17.382812 C 26.328125 16.453125 28.53125 16.835938 29.875 18.089844 C 29.136719 17.121094 27.664062 16.097656 25.921875 16.191406 C 24.21875 16.21875 22.621094 17.304688 22.089844 18.480469 C 21.214844 19.03125 21.113281 20.601562 20.730469 20.890625 C 20.21875 24.65625 21.695312 26.285156 24.195312 28.199219 C 24.585938 28.464844 24.304688 28.503906 24.355469 28.707031 C 23.527344 28.316406 22.765625 27.730469 22.140625 27.011719 C 22.472656 27.496094 22.832031 27.96875 23.292969 28.339844 C 22.511719 28.074219 21.464844 26.445312 21.160156 26.378906 C 22.511719 28.792969 26.632812 30.613281 28.792969 29.710938 C 27.792969 29.746094 26.523438 29.730469 25.402344 29.316406 C 24.929688 29.074219 24.289062 28.570312 24.402344 28.476562 C 27.351562 29.578125 30.394531 29.308594 32.945312 27.265625 C 33.59375 26.761719 34.300781 25.902344 34.507812 25.890625 C 34.199219 26.351562 34.558594 26.113281 34.324219 26.523438 C 34.96875 25.480469 34.042969 26.097656 34.992188 24.722656 L 35.34375 25.203125 C 35.210938 24.339844 36.417969 23.289062 36.292969 21.917969 C 36.570312 21.5 36.601562 22.371094 36.308594 23.332031 C 36.714844 22.265625 36.417969 22.09375 36.519531 21.210938 C 36.632812 21.507812 36.78125 21.824219 36.859375 22.136719 C 36.59375 21.101562 37.128906 20.398438 37.261719 19.796875 C 37.132812 19.738281 36.855469 20.253906 36.789062 19.035156 C 36.800781 18.503906 36.9375 18.757812 36.992188 18.625 C 36.886719 18.566406 36.613281 18.160156 36.449219 17.382812 C 36.570312 17.199219 36.769531 17.855469 36.933594 17.882812 C 36.828125 17.265625 36.648438 16.792969 36.640625 16.316406 C 36.160156 15.316406 36.472656 16.449219 36.082031 15.886719 C 35.574219 14.300781 36.503906 15.519531 36.566406 14.796875 C 37.339844 15.917969 37.78125 17.648438 37.980469 18.367188 C 37.828125 17.492188 37.578125 16.644531 37.273438 15.824219 C 37.507812 15.921875 36.898438 14.023438 37.578125 15.28125 C 36.851562 12.601562 34.460938 10.09375 32.261719 8.921875 C 32.53125 9.167969 32.871094 9.476562 32.75 9.523438 C 31.65625 8.875 31.847656 8.824219 31.691406 8.546875 C 30.800781 8.183594 30.742188 8.578125 30.152344 8.546875 C 28.472656 7.65625 28.152344 7.753906 26.605469 7.195312 L 26.675781 7.523438 C 25.5625 7.152344 25.378906 7.664062 24.179688 7.523438 C 24.105469 7.46875 24.5625 7.316406 24.941406 7.261719 C 23.867188 7.40625 23.917969 7.050781 22.863281 7.300781 C 23.125 7.121094 23.398438 7 23.675781 6.84375 C 22.796875 6.898438 21.582031 7.355469 21.957031 6.9375 C 20.527344 7.578125 17.984375 8.472656 16.5625 9.808594 L 16.515625 9.511719 C 15.863281 10.292969 13.667969 11.851562 13.492188 12.867188 L 13.316406 12.90625 C 12.976562 13.484375 12.757812 14.136719 12.488281 14.726562 C 12.042969 15.484375 11.835938 15.019531 11.902344 15.136719 C 11.027344 16.910156 10.59375 18.398438 10.21875 19.621094 C 10.484375 20.019531 10.222656 22.027344 10.324219 23.632812 C 9.886719 31.5625 15.890625 39.261719 22.453125 41.039062 C 23.414062 41.382812 24.84375 41.367188 26.0625 41.402344 C 24.625 40.992188 24.441406 41.1875 23.042969 40.699219 C 22.03125 40.222656 21.8125 39.679688 21.097656 39.0625 L 21.378906 39.558594 C 19.976562 39.066406 20.566406 38.945312 19.425781 38.585938 L 19.726562 38.191406 C 19.273438 38.15625 18.523438 37.425781 18.320312 37.019531 L 17.820312 37.039062 C 17.226562 36.304688 16.90625 35.773438 16.929688 35.363281 L 16.769531 35.648438 C 16.585938 35.335938 14.574219 32.886719 15.617188 33.457031 C 15.425781 33.277344 15.167969 33.167969 14.886719 32.660156 L 15.097656 32.414062 C 14.597656 31.769531 14.171875 30.9375 14.207031 30.664062 C 14.472656 31.023438 14.660156 31.09375 14.84375 31.15625 C 13.574219 28.003906 13.503906 30.980469 12.542969 27.949219 L 12.746094 27.929688 C 12.589844 27.695312 12.492188 27.441406 12.367188 27.191406 L 12.457031 26.308594 C 11.542969 25.25 12.203125 21.8125 12.332031 19.925781 C 12.425781 19.160156 13.097656 18.34375 13.609375 17.0625 L 13.296875 17.011719 C 13.890625 15.972656 16.695312 12.84375 17.992188 13.003906 C 18.621094 12.214844 17.867188 13 17.742188 12.800781 C 19.125 11.371094 19.558594 11.792969 20.492188 11.535156 C 21.496094 10.9375 19.628906 11.765625 20.105469 11.308594 C 21.84375 10.863281 21.335938 10.296875 23.601562 10.074219 C 23.84375 10.207031 23.046875 10.28125 22.847656 10.460938 C 24.296875 9.75 27.429688 9.910156 29.464844 10.851562 C 31.828125 11.957031 34.480469 15.21875 34.585938 18.289062 L 34.707031 18.320312 C 34.644531 19.542969 34.890625 20.953125 34.464844 22.25 L 34.753906 21.636719 "/>
<path style=" stroke:none;fill-rule:nonzero;fill:rgb(100%,100%,100%);fill-opacity:1;" d="M 20.433594 25.777344 L 20.355469 26.183594 C 20.734375 26.695312 21.035156 27.253906 21.519531 27.65625 C 21.167969 26.976562 20.910156 26.695312 20.433594 25.777344 "/>
<path style=" stroke:none;fill-rule:nonzero;fill:rgb(100%,100%,100%);fill-opacity:1;" d="M 21.332031 25.742188 C 21.128906 25.519531 21.011719 25.253906 20.878906 24.988281 C 21.003906 25.457031 21.265625 25.855469 21.507812 26.265625 L 21.332031 25.742188 "/>
<path style=" stroke:none;fill-rule:nonzero;fill:rgb(100%,100%,100%);fill-opacity:1;" d="M 37.1875 22.296875 L 37.101562 22.507812 C 36.945312 23.613281 36.613281 24.703125 36.097656 25.714844 C 36.664062 24.648438 37.03125 23.480469 37.1875 22.296875 "/>
<path style=" stroke:none;fill-rule:nonzero;fill:rgb(100%,100%,100%);fill-opacity:1;" d="M 24.65625 6.769531 C 25.046875 6.625 25.617188 6.691406 26.027344 6.597656 C 25.488281 6.640625 24.953125 6.667969 24.421875 6.738281 L 24.65625 6.769531 "/>
<path style=" stroke:none;fill-rule:nonzero;fill:rgb(100%,100%,100%);fill-opacity:1;" d="M 10.964844 14.046875 C 11.054688 14.878906 10.339844 15.203125 11.125 14.65625 C 11.546875 13.707031 10.960938 14.394531 10.964844 14.046875 "/>
<path style=" stroke:none;fill-rule:nonzero;fill:rgb(100%,100%,100%);fill-opacity:1;" d="M 10.046875 17.898438 C 10.226562 17.34375 10.257812 17.011719 10.328125 16.691406 C 9.828125 17.328125 10.097656 17.464844 10.046875 17.898438 "/>
</g>
</svg>
