
<svg xmlns="http://www.w3.org/2000/svg" xmlns:xlink="http://www.w3.org/1999/xlink" width="32px" height="32px" viewBox="0 0 32 32" version="1.1">
<g id="surface1">
<path style=" stroke:none;fill-rule:nonzero;fill:rgb(52.941179%,64.705884%,33.725491%);fill-opacity:1;" d="M 32 16 C 32 24.835938 24.835938 32 16 32 C 7.164062 32 0 24.835938 0 16 C 0 7.164062 7.164062 0 16 0 C 24.835938 0 32 7.164062 32 16 Z M 32 16 "/>
<path style=" stroke:none;fill-rule:nonzero;fill:rgb(100%,100%,100%);fill-opacity:1;" d="M 17.820312 16.65625 C 17.433594 16.664062 17.894531 16.855469 18.394531 16.933594 C 18.535156 16.824219 18.660156 16.714844 18.769531 16.609375 C 18.457031 16.683594 18.140625 16.6875 17.820312 16.65625 "/>
<path style=" stroke:none;fill-rule:nonzero;fill:rgb(100%,100%,100%);fill-opacity:1;" d="M 19.882812 16.144531 C 20.113281 15.828125 20.28125 15.480469 20.339844 15.125 C 20.285156 15.378906 20.148438 15.597656 20.019531 15.832031 C 19.300781 16.285156 19.949219 15.5625 20.019531 15.289062 C 19.246094 16.261719 19.910156 15.871094 19.882812 16.144531 "/>
<path style=" stroke:none;fill-rule:nonzero;fill:rgb(100%,100%,100%);fill-opacity:1;" d="M 20.644531 14.160156 C 20.691406 13.46875 20.507812 13.6875 20.449219 13.953125 C 20.519531 13.988281 20.574219 14.441406 20.644531 14.160156 "/>
<path style=" stroke:none;fill-rule:nonzero;fill:rgb(100%,100%,100%);fill-opacity:1;" d="M 16.363281 4.695312 C 16.566406 4.734375 16.804688 4.761719 16.773438 4.8125 C 16.996094 4.761719 17.046875 4.714844 16.363281 4.695312 "/>
<path style=" stroke:none;fill-rule:nonzero;fill:rgb(100%,100%,100%);fill-opacity:1;" d="M 16.773438 4.8125 L 16.625 4.839844 L 16.761719 4.828125 L 16.773438 4.8125 "/>
<path style=" stroke:none;fill-rule:nonzero;fill:rgb(100%,100%,100%);fill-opacity:1;" d="M 23.171875 14.421875 C 23.191406 15.046875 22.988281 15.347656 22.804688 15.882812 L 22.472656 16.046875 C 22.199219 16.574219 22.496094 16.382812 22.304688 16.800781 C 21.878906 17.179688 21.015625 17.984375 20.738281 18.058594 C 20.535156 18.050781 20.875 17.820312 20.917969 17.726562 C 20.351562 18.117188 20.464844 18.3125 19.59375 18.550781 L 19.570312 18.492188 C 17.425781 19.5 14.449219 17.503906 14.488281 14.777344 C 14.464844 14.949219 14.421875 14.90625 14.375 14.976562 C 14.265625 13.574219 15.023438 12.164062 16.300781 11.589844 C 17.554688 10.96875 19.019531 11.222656 19.917969 12.058594 C 19.421875 11.414062 18.445312 10.730469 17.28125 10.792969 C 16.144531 10.8125 15.082031 11.535156 14.726562 12.320312 C 14.140625 12.6875 14.074219 13.734375 13.820312 13.925781 C 13.480469 16.4375 14.464844 17.523438 16.128906 18.800781 C 16.390625 18.976562 16.203125 19.003906 16.238281 19.136719 C 15.683594 18.878906 15.179688 18.488281 14.761719 18.007812 C 14.984375 18.332031 15.222656 18.644531 15.53125 18.894531 C 15.007812 18.714844 14.3125 17.628906 14.109375 17.585938 C 15.007812 19.195312 17.757812 20.410156 19.195312 19.804688 C 18.53125 19.832031 17.683594 19.820312 16.933594 19.542969 C 16.621094 19.382812 16.191406 19.046875 16.269531 18.984375 C 18.234375 19.71875 20.261719 19.539062 21.964844 18.175781 C 22.394531 17.839844 22.867188 17.265625 23.003906 17.257812 C 22.800781 17.570312 23.039062 17.410156 22.882812 17.679688 C 23.3125 16.984375 22.695312 17.398438 23.328125 16.480469 L 23.5625 16.804688 C 23.472656 16.226562 24.277344 15.527344 24.195312 14.613281 C 24.378906 14.335938 24.402344 14.914062 24.207031 15.554688 C 24.476562 14.84375 24.277344 14.730469 24.347656 14.140625 C 24.421875 14.339844 24.523438 14.546875 24.574219 14.757812 C 24.394531 14.070312 24.753906 13.597656 24.84375 13.199219 C 24.753906 13.160156 24.570312 13.503906 24.527344 12.691406 C 24.535156 12.335938 24.625 12.503906 24.660156 12.417969 C 24.589844 12.378906 24.410156 12.105469 24.300781 11.589844 C 24.378906 11.464844 24.511719 11.90625 24.621094 11.921875 C 24.550781 11.507812 24.429688 11.195312 24.425781 10.878906 C 24.109375 10.210938 24.3125 10.96875 24.054688 10.59375 C 23.714844 9.535156 24.335938 10.347656 24.378906 9.867188 C 24.894531 10.609375 25.1875 11.765625 25.320312 12.246094 C 25.21875 11.660156 25.050781 11.097656 24.847656 10.550781 C 25.003906 10.613281 24.597656 9.347656 25.050781 10.1875 C 24.566406 8.398438 22.972656 6.730469 21.507812 5.945312 C 21.6875 6.109375 21.914062 6.316406 21.832031 6.347656 C 21.105469 5.914062 21.230469 5.882812 21.128906 5.699219 C 20.535156 5.457031 20.496094 5.71875 20.101562 5.699219 C 18.984375 5.105469 18.765625 5.167969 17.738281 4.796875 L 17.785156 5.015625 C 17.042969 4.769531 16.921875 5.109375 16.117188 5.015625 C 16.070312 4.976562 16.375 4.878906 16.628906 4.839844 C 15.910156 4.9375 15.945312 4.699219 15.242188 4.867188 C 15.414062 4.746094 15.597656 4.667969 15.78125 4.5625 C 15.199219 4.597656 14.386719 4.902344 14.636719 4.625 C 13.683594 5.050781 11.992188 5.648438 11.039062 6.539062 L 11.011719 6.339844 C 10.574219 6.863281 9.113281 7.902344 8.996094 8.578125 L 8.878906 8.605469 C 8.652344 8.988281 8.503906 9.425781 8.324219 9.820312 C 8.03125 10.324219 7.890625 10.011719 7.933594 10.09375 C 7.351562 11.273438 7.0625 12.265625 6.8125 13.082031 C 6.988281 13.347656 6.816406 14.683594 6.882812 15.753906 C 6.589844 21.039062 10.59375 26.171875 14.96875 27.359375 C 15.609375 27.585938 16.5625 27.578125 17.375 27.601562 C 16.417969 27.328125 16.292969 27.457031 15.359375 27.132812 C 14.6875 26.816406 14.539062 26.453125 14.066406 26.039062 L 14.253906 26.375 C 13.320312 26.042969 13.710938 25.964844 12.949219 25.722656 L 13.152344 25.460938 C 12.847656 25.4375 12.347656 24.949219 12.210938 24.679688 L 11.882812 24.695312 C 11.484375 24.203125 11.269531 23.847656 11.285156 23.574219 L 11.179688 23.765625 C 11.058594 23.558594 9.714844 21.921875 10.414062 22.304688 C 10.28125 22.1875 10.109375 22.113281 9.925781 21.773438 L 10.066406 21.609375 C 9.730469 21.179688 9.449219 20.625 9.46875 20.441406 C 9.648438 20.683594 9.773438 20.730469 9.894531 20.769531 C 9.050781 18.667969 9.003906 20.652344 8.359375 18.632812 L 8.496094 18.621094 C 8.390625 18.464844 8.328125 18.292969 8.246094 18.128906 L 8.304688 17.539062 C 7.695312 16.832031 8.132812 14.542969 8.222656 13.285156 C 8.28125 12.773438 8.730469 12.230469 9.070312 11.375 L 8.863281 11.339844 C 9.261719 10.648438 11.128906 8.5625 11.996094 8.667969 C 12.414062 8.140625 11.910156 8.667969 11.828125 8.535156 C 12.75 7.582031 13.039062 7.859375 13.660156 7.691406 C 14.332031 7.292969 13.085938 7.84375 13.402344 7.539062 C 14.5625 7.242188 14.222656 6.867188 15.734375 6.714844 C 15.894531 6.804688 15.367188 6.855469 15.234375 6.972656 C 16.199219 6.5 18.289062 6.609375 19.644531 7.234375 C 21.21875 7.972656 22.988281 10.144531 23.058594 12.191406 L 23.136719 12.214844 C 23.097656 13.027344 23.261719 13.96875 22.976562 14.832031 L 23.171875 14.421875 "/>
<path style=" stroke:none;fill-rule:nonzero;fill:rgb(100%,100%,100%);fill-opacity:1;" d="M 13.625 17.183594 L 13.570312 17.453125 C 13.820312 17.796875 14.023438 18.171875 14.34375 18.4375 C 14.113281 17.984375 13.941406 17.796875 13.625 17.183594 "/>
<path style=" stroke:none;fill-rule:nonzero;fill:rgb(100%,100%,100%);fill-opacity:1;" d="M 14.21875 17.160156 C 14.085938 17.015625 14.007812 16.835938 13.917969 16.660156 C 14.003906 16.96875 14.175781 17.238281 14.339844 17.511719 L 14.21875 17.160156 "/>
<path style=" stroke:none;fill-rule:nonzero;fill:rgb(100%,100%,100%);fill-opacity:1;" d="M 24.792969 14.863281 L 24.734375 15.003906 C 24.632812 15.742188 24.40625 16.46875 24.066406 17.144531 C 24.445312 16.433594 24.6875 15.652344 24.792969 14.863281 "/>
<path style=" stroke:none;fill-rule:nonzero;fill:rgb(100%,100%,100%);fill-opacity:1;" d="M 16.4375 4.511719 C 16.699219 4.417969 17.078125 4.460938 17.351562 4.398438 C 16.992188 4.429688 16.636719 4.445312 16.28125 4.492188 L 16.4375 4.511719 "/>
<path style=" stroke:none;fill-rule:nonzero;fill:rgb(100%,100%,100%);fill-opacity:1;" d="M 7.3125 9.367188 C 7.371094 9.921875 6.894531 10.136719 7.417969 9.769531 C 7.695312 9.136719 7.308594 9.59375 7.3125 9.367188 "/>
<path style=" stroke:none;fill-rule:nonzero;fill:rgb(100%,100%,100%);fill-opacity:1;" d="M 6.695312 11.933594 C 6.816406 11.5625 6.839844 11.339844 6.886719 11.125 C 6.550781 11.550781 6.730469 11.644531 6.695312 11.933594 "/>
</g>
</svg>
