<?xml version="1.0" encoding="UTF-8" standalone="no"?>
<!-- Created with Inkscape (http://www.inkscape.org/) -->

<svg
   xmlns:svg="http://www.w3.org/2000/svg"
   xmlns="http://www.w3.org/2000/svg"
   xmlns:xlink="http://www.w3.org/1999/xlink"
   version="1.0"
   width="24"
   height="24"
   id="svg2">
  <defs
     id="defs4">
    <linearGradient
       id="linearGradient2372-378-9">
      <stop
         id="stop3245-1"
         style="stop-color:#ffffff;stop-opacity:1"
         offset="0" />
      <stop
         id="stop3247-7"
         style="stop-color:#ffffff;stop-opacity:0.37931034"
         offset="1" />
    </linearGradient>
    <linearGradient
       id="linearGradient2372-270-7">
      <stop
         id="stop3239-9"
         style="stop-color:#ffffff;stop-opacity:1"
         offset="0" />
      <stop
         id="stop3241-7"
         style="stop-color:#ffffff;stop-opacity:0.37931034"
         offset="1" />
    </linearGradient>
    <linearGradient
       id="linearGradient7067-561-456-275-6">
      <stop
         id="stop3871-4"
         style="stop-color:#aaaaaa;stop-opacity:1"
         offset="0" />
      <stop
         id="stop3873-6"
         style="stop-color:#4d4d4d;stop-opacity:1"
         offset="1" />
    </linearGradient>
    <linearGradient
       id="linearGradient7067-814-120-245-2">
      <stop
         id="stop3877-9"
         style="stop-color:#aaaaaa;stop-opacity:1"
         offset="0" />
      <stop
         id="stop3879-7"
         style="stop-color:#4d4d4d;stop-opacity:1"
         offset="1" />
    </linearGradient>
    <linearGradient
       id="linearGradient5670-612-8">
      <stop
         id="stop3203-1"
         style="stop-color:#000000;stop-opacity:1"
         offset="0" />
      <stop
         id="stop3205-0"
         style="stop-color:#000000;stop-opacity:0"
         offset="1" />
    </linearGradient>
    <radialGradient
       cx="22.90196"
       cy="45.866665"
       r="7.9058824"
       fx="22.90196"
       fy="45.866665"
       id="radialGradient3009"
       xlink:href="#linearGradient5670-612-8"
       gradientUnits="userSpaceOnUse"
       gradientTransform="matrix(0.66071885,0,0,0.3129613,-8.9031905,6.3461948)" />
    <radialGradient
       cx="17.058823"
       cy="41.058823"
       r="5.7384715"
       fx="14.638257"
       fy="38.175381"
       id="radialGradient3011"
       xlink:href="#linearGradient7067-814-120-245-2"
       gradientUnits="userSpaceOnUse"
       gradientTransform="matrix(0.59740794,0,-0.09780124,0.5954004,0.32452866,-6.8640305)" />
    <radialGradient
       cx="17.058823"
       cy="41.058823"
       r="5.7384715"
       fx="14.109128"
       fy="38.980988"
       id="radialGradient3013"
       xlink:href="#linearGradient7067-561-456-275-6"
       gradientUnits="userSpaceOnUse"
       gradientTransform="matrix(0.59591878,0,-0.09755746,0.57266939,10.339923,-7.2172412)" />
    <linearGradient
       x1="28.739122"
       y1="144.11652"
       x2="25.400293"
       y2="119.86452"
       id="linearGradient3015"
       xlink:href="#linearGradient2372-270-7"
       gradientUnits="userSpaceOnUse"
       gradientTransform="matrix(0.19286031,0,0,0.20017309,3.5998829,-25.153639)" />
    <linearGradient
       x1="28.739122"
       y1="144.11652"
       x2="26.256771"
       y2="125.39074"
       id="linearGradient3017"
       xlink:href="#linearGradient2372-378-9"
       gradientUnits="userSpaceOnUse"
       gradientTransform="matrix(0.38805828,0,0,0.18495321,8.9817211,-23.653324)" />
    <radialGradient
       cx="22.90196"
       cy="45.866665"
       r="7.9058824"
       fx="22.90196"
       fy="45.866665"
       id="radialGradient3665"
       xlink:href="#linearGradient5670-612-8"
       gradientUnits="userSpaceOnUse"
       gradientTransform="matrix(0.66071885,0,0,0.37620527,1.6446799,1.7197387)" />
  </defs>
  <path
     d="m 22,18.975036 a 5.2235657,2.9742377 0 0 1 -10.447131,0 5.2235657,2.9742377 0 1 1 10.447131,0 z"
     id="path3663"
     style="opacity:0.6;fill:url(#radialGradient3665);fill-opacity:1;stroke:none" />
  <path
     d="m 11.452131,20.7007 a 5.2235657,2.4742378 0 0 1 -10.4471306,0 5.2235657,2.4742378 0 1 1 10.4471306,0 z"
     id="path4121"
     style="opacity:0.6;fill:url(#radialGradient3009);fill-opacity:1;stroke:none" />
  <path
     d="M 19.379897,1.4475235 C 15.781582,2.0502816 12.095813,2.4987179 8.5075005,3.1351401 7.5572962,3.6170664 7.5369451,4.8580351 7.4949066,5.7584723 c 0,4.0179271 0,4.3727327 0,8.3906607 -2.4420934,-0.587199 -4.8886356,1.328665 -4.9945468,4.052018 -0.1728887,1.695498 1.2734866,3.268818 2.8462877,3.308504 2.8160341,0.07106 5.1215305,-1.968554 5.1520765,-4.424721 -0.03075,-4.124988 0.0086,-4.588476 0,-8.7140977 0.435956,-0.033563 6.41511,-1.171256 7.008906,-1.2584613 0,3.089919 0,2.5167144 0,5.606634 -2.252494,-0.696964 -4.28265,0.759681 -4.837369,3.201173 -0.410443,1.414332 0.208374,3.086242 1.54421,3.6657 2.607767,1.245613 6.442516,-0.175208 6.296976,-4.128882 -0.04039,-5.5004542 0.03311,-7.4498528 0,-12.9508938 -0.06849,-0.5169447 -0.57218,-1.095898 -1.13155,-1.0585827 z"
     id="path4031"
     style="fill:#4d4d4d;fill-opacity:1;stroke:#333333;stroke-width:0.97708452;stroke-linecap:round;stroke-linejoin:round;stroke-miterlimit:4;stroke-opacity:1;stroke-dasharray:none" />
  <path
     d="M 9.9999996,16.960852 C 9.9991287,18.720915 8.3320404,20.617666 6.499999,20.943025 4.6679575,21.268384 3.0008699,19.963761 2.9999999,18.204008 2.9991293,16.44319 4.6668504,14.744556 6.5000005,14.419 8.3331506,14.093444 10.000871,14.117018 9.9999996,16.960852 z"
     id="path2937"
     style="fill:url(#radialGradient3011);fill-opacity:1;stroke:none" />
  <path
     d="m 20,15.696569 c 5.31e-4,1.697684 -1.667067,3.528321 -3.5,3.842194 -1.832934,0.313872 -3.500531,-0.945644 -3.5,-2.64351 5.31e-4,-1.69724 1.667743,-3.526559 3.5,-3.840316 1.832258,-0.313757 3.589695,-1.491517 3.5,2.641632 z"
     id="path2941"
     style="fill:url(#radialGradient3013);fill-opacity:1;stroke:none" />
  <path
     d="M 8.0818539,14.542233 8.0000001,4.6326425 c 0,0 0.089603,-1.0319353 0.7542657,-1.0350808 0.2357294,-0.042051 10.5683962,-1.7980505 10.5683962,-1.7980505 0,0 1.514598,1.3748769 -9.5921519,2.4831531 -1.1208109,0.2219994 -0.8708143,0.655789 -0.8708143,1.4175865 0,2.0547231 1.7e-6,1.8136316 1.7e-6,9.2951782 0,0.05353 -0.4961774,-0.379244 -0.7778436,-0.453196 z"
     id="path2945"
     style="opacity:0.3;fill:url(#linearGradient3015);fill-opacity:1;fill-rule:evenodd;stroke:none" />
  <path
     d="m 18,12.897314 0.05173,-6.1059201 c 0.545049,-0.046398 0.08368,-0.00747 0.818658,-0.076961 0.01011,1.7598948 4.18e-4,-0.095185 4.18e-4,6.5514721 0,0.04945 -0.304053,-0.300261 -0.870802,-0.36859 z"
     id="path2947"
     style="opacity:0.3;fill:url(#linearGradient3017);fill-opacity:1;fill-rule:evenodd;stroke:none" />
</svg>
