<?xml version="1.0" encoding="UTF-8" standalone="no"?>
<svg
   xmlns:dc="http://purl.org/dc/elements/1.1/"
   xmlns:cc="http://creativecommons.org/ns#"
   xmlns:rdf="http://www.w3.org/1999/02/22-rdf-syntax-ns#"
   xmlns:svg="http://www.w3.org/2000/svg"
   xmlns="http://www.w3.org/2000/svg"
   xmlns:sodipodi="http://sodipodi.sourceforge.net/DTD/sodipodi-0.dtd"
   xmlns:inkscape="http://www.inkscape.org/namespaces/inkscape"
   width="16"
   height="16"
   id="svg4275"
   version="1.1"
   inkscape:version="1.0.2 (e86c870879, 2021-01-15)"
   sodipodi:docname="start-here-symbolic.svg">
  <defs
     id="defs4277" />
  <sodipodi:namedview
     id="base"
     pagecolor="#ffffff"
     bordercolor="#666666"
     borderopacity="1.0"
     inkscape:pageopacity="0.0"
     inkscape:pageshadow="2"
     inkscape:zoom="32"
     inkscape:cx="6.3019869"
     inkscape:cy="9.8992034"
     inkscape:document-units="px"
     inkscape:current-layer="g3769"
     showgrid="false"
     inkscape:window-width="1920"
     inkscape:window-height="995"
     inkscape:window-x="0"
     inkscape:window-y="28"
     inkscape:window-maximized="1"
     inkscape:snap-global="true"
     inkscape:snap-bbox="true"
     inkscape:bbox-nodes="true"
     inkscape:object-paths="true"
     inkscape:snap-intersection-paths="true"
     inkscape:snap-smooth-nodes="true"
     inkscape:snap-bbox-edge-midpoints="true"
     inkscape:snap-bbox-midpoints="true"
     inkscape:bbox-paths="true"
     inkscape:document-rotation="0"
     showborder="false">
    <inkscape:grid
       type="xygrid"
       id="grid4292"
       empspacing="4"
       visible="true"
       enabled="true"
       snapvisiblegridlinesonly="true" />
  </sodipodi:namedview>
  <metadata
     id="metadata4280">
    <rdf:RDF>
      <cc:Work
         rdf:about="">
        <dc:format>image/svg+xml</dc:format>
        <dc:type
           rdf:resource="http://purl.org/dc/dcmitype/StillImage" />
        <dc:title />
      </cc:Work>
    </rdf:RDF>
  </metadata>
  <g
     inkscape:label="Layer 1"
     inkscape:groupmode="layer"
     id="layer1"
     transform="translate(0,-892.36218)">
    <g
       id="g3769"
       transform="matrix(0.11111111,0,0,0.11111111,-0.888889,792.32194)">
      <path
         id="path3171-7-3-3-8-7-0-9-6-3"
         style="fill:#808080;fill-opacity:1;stroke-width:0.111111"
         d="M 8 0 C 3.581696 0 -3.5527137e-15 3.5815834 0 8 C 0 12.418138 3.581696 16 8 16 C 12.418248 16 16 12.418082 16 8 C 16 3.5815834 12.418248 -3.5527137e-15 8 0 z M 7.8886719 2.1542969 C 7.7944036 2.2070084 7.7016443 2.2485398 7.6132812 2.3105469 C 7.9717634 2.2250274 7.9539566 2.3452121 8.3203125 2.296875 C 8.1918145 2.3155756 8.0356128 2.3672525 8.0605469 2.3867188 C 8.4701 2.434181 8.5331771 2.2585642 8.9121094 2.3847656 L 8.8886719 2.2734375 C 9.4150214 2.4635051 9.5237507 2.4310105 10.095703 2.734375 C 10.296707 2.744108 10.31762 2.6109076 10.621094 2.734375 C 10.674461 2.8280965 10.607989 2.8465774 10.980469 3.0683594 C 11.022026 3.051846 10.906097 2.9452072 10.814453 2.8613281 C 11.56346 3.2618043 12.378706 4.1159224 12.626953 5.0292969 C 12.394563 4.6008245 12.60327 5.2484173 12.523438 5.2148438 C 12.627001 5.4942585 12.711179 5.7819629 12.763672 6.0800781 C 12.694884 5.8355492 12.546104 5.2461351 12.283203 4.8652344 C 12.261769 5.1110756 11.943741 4.6953244 12.117188 5.2363281 C 12.249404 5.4279268 12.143694 5.0422656 12.306641 5.3828125 C 12.309156 5.5446653 12.37038 5.7050602 12.40625 5.9160156 C 12.350476 5.9068294 12.283197 5.6818054 12.242188 5.7441406 C 12.298727 6.0094479 12.390349 6.1495809 12.425781 6.1699219 C 12.407627 6.214322 12.360593 6.1281496 12.357422 6.3085938 C 12.379075 6.7240523 12.474912 6.5485652 12.519531 6.5683594 C 12.474256 6.7727532 12.290528 7.0135327 12.380859 7.3652344 C 12.354941 7.2587178 12.30412 7.1517207 12.265625 7.0507812 C 12.229974 7.3510839 12.332028 7.4094875 12.193359 7.7734375 C 12.293314 7.4453576 12.283612 7.1484102 12.189453 7.2910156 C 12.231119 7.7573265 11.820834 8.1153218 11.865234 8.4101562 L 11.746094 8.2460938 C 11.422716 8.7149199 11.737829 8.5041738 11.517578 8.859375 C 11.598286 8.7198317 11.474983 8.8025566 11.580078 8.6445312 C 11.510306 8.6485778 11.269845 8.9411487 11.048828 9.1132812 C 10.179963 9.8097951 9.1428151 9.9004953 8.1386719 9.5253906 C 8.0996304 9.5574331 8.3178658 9.7278707 8.4785156 9.8105469 C 8.8610568 9.9519493 9.2923749 9.9578889 9.6328125 9.9453125 C 8.8970386 10.253051 7.4928431 9.6334806 7.0332031 8.8105469 C 7.1372045 8.8331844 7.493146 9.3881843 7.7597656 9.4785156 C 7.6021779 9.3522049 7.4801563 9.192696 7.3671875 9.0273438 C 7.5801114 9.2720914 7.8382887 9.4710807 8.1210938 9.6035156 C 8.1029398 9.5347282 8.2003724 9.521972 8.0664062 9.4316406 C 7.2152576 8.7793084 6.7120707 8.2230111 6.8867188 6.9394531 C 7.016529 6.8414666 7.0497597 6.306693 7.3476562 6.1191406 C 7.529194 5.7180083 8.0747831 5.34903 8.65625 5.3398438 C 9.2498559 5.3071449 9.750316 5.6567172 10.001953 5.9863281 C 9.5438444 5.5593868 8.793834 5.4294964 8.1542969 5.7460938 C 7.5004336 6.0401627 7.1133828 6.7594892 7.1699219 7.4765625 C 7.1941998 7.4408018 7.214861 7.4634722 7.2265625 7.375 C 7.2065496 8.7686834 8.7286504 9.7908041 9.8242188 9.2753906 L 9.8378906 9.3027344 C 10.282111 9.1815635 10.223212 9.0822851 10.513672 8.8828125 C 10.491034 8.9296186 10.318749 9.0484847 10.421875 9.0507812 C 10.563168 9.0132708 11.003733 8.6030674 11.220703 8.4101562 C 11.320221 8.1954826 11.169597 8.2933379 11.308594 8.0234375 L 11.476562 7.9394531 C 11.570942 7.6664906 11.675766 7.5111594 11.664062 7.1933594 L 11.566406 7.4023438 C 11.712292 6.9606386 11.627876 6.4802397 11.648438 6.0644531 L 11.607422 6.0546875 C 11.571771 5.0086594 10.668061 3.8956204 9.8632812 3.5195312 C 9.1697203 3.1991065 8.1007447 3.1453611 7.6074219 3.3867188 C 7.6753344 3.3265706 7.9467076 3.3002751 7.8652344 3.2539062 C 7.0928249 3.3306771 7.265903 3.5245364 6.6738281 3.6757812 C 6.5114286 3.8326036 7.1472029 3.5486529 6.8046875 3.7519531 C 6.4871062 3.8395505 6.3397166 3.6966136 5.8691406 4.1835938 C 5.9110255 4.2513969 6.1673612 3.9847714 5.953125 4.2539062 C 5.5108733 4.1990075 4.556269 5.2654705 4.3535156 5.6191406 L 4.4589844 5.6367188 C 4.2848833 6.0728463 4.0565582 6.3500672 4.0253906 6.6113281 C 3.9804437 7.2538179 3.7548397 8.4268776 4.0664062 8.7871094 L 4.0371094 9.0878906 C 4.0798691 9.1731914 4.1109136 9.2597921 4.1640625 9.3398438 L 4.0957031 9.3457031 C 4.4234549 10.379483 4.448122 9.3638038 4.8808594 10.4375 C 4.8180868 10.416394 4.7535343 10.392999 4.6621094 10.269531 C 4.6511734 10.36369 4.7954298 10.646716 4.9667969 10.867188 L 4.8945312 10.951172 C 4.9898933 11.124398 5.0783685 11.16218 5.1445312 11.222656 C 4.7884552 11.028324 5.4751023 11.862343 5.5371094 11.96875 L 5.5917969 11.871094 C 5.583923 12.011184 5.6911217 12.192378 5.8945312 12.443359 L 6.0644531 12.4375 C 6.1342248 12.575403 6.3882242 12.824234 6.5429688 12.835938 L 6.4414062 12.970703 C 6.8298531 13.093733 6.6299563 13.133773 7.1074219 13.302734 L 7.0117188 13.130859 C 7.255154 13.342143 7.3301097 13.5276 7.6738281 13.689453 C 8.1503095 13.855571 8.2139579 13.789814 8.703125 13.929688 C 8.2885414 13.917656 7.8004083 13.921921 7.4726562 13.804688 C 5.236573 13.19905 3.1902391 10.576629 3.3398438 7.875 C 3.3053952 7.3279814 3.3938312 6.6439657 3.3027344 6.5078125 C 3.4305762 6.0915885 3.5790566 5.5844638 3.8769531 4.9804688 C 3.8554092 4.9400054 3.9266614 5.0979333 4.078125 4.8398438 C 4.1699874 4.6380744 4.2435628 4.4167855 4.359375 4.2207031 L 4.4199219 4.2070312 C 4.4795231 3.8610163 5.226671 3.3296664 5.4492188 3.0625 L 5.4648438 3.1640625 C 5.9505114 2.7086876 6.8154264 2.4049076 7.3027344 2.1875 C 7.1747832 2.3291212 7.5899004 2.1724506 7.8886719 2.1542969 z M 8.1855469 2.2226562 C 8.5358268 2.232608 8.5092499 2.2560972 8.3945312 2.28125 C 8.4115914 2.2562066 8.2904231 2.2414662 8.1855469 2.2226562 z M 9.4160156 8.3105469 C 9.358711 8.3650081 9.2954746 8.4212264 9.2246094 8.4765625 C 8.9680509 8.4370836 8.7331676 8.3386715 8.9296875 8.3359375 C 9.0935087 8.3509198 9.2562407 8.3496977 9.4160156 8.3105469 z "
         transform="matrix(9.0000001,0,0,9.0000001,8.0000011,900.36217)" />
      <g
         style="overflow:visible;fill:#333333"
         id="g54"
         transform="matrix(0.98423971,0,0,0.98423971,17.00866,909.37083)">
        <g
           id="g7"
           transform="translate(20.519555,9.7755)"
           style="fill:#333333" />
      </g>
    </g>
  </g>
</svg>
