<?xml version="1.0" encoding="UTF-8" standalone="no"?>
<svg
   xmlns:dc="http://purl.org/dc/elements/1.1/"
   xmlns:cc="http://creativecommons.org/ns#"
   xmlns:rdf="http://www.w3.org/1999/02/22-rdf-syntax-ns#"
   xmlns:svg="http://www.w3.org/2000/svg"
   xmlns="http://www.w3.org/2000/svg"
   xmlns:xlink="http://www.w3.org/1999/xlink"
   id="svg2"
   height="48"
   width="48"
   version="1.0">
  <metadata
     id="metadata182">
    <rdf:RDF>
      <cc:Work
         rdf:about="">
        <dc:format>image/svg+xml</dc:format>
        <dc:type
           rdf:resource="http://purl.org/dc/dcmitype/StillImage" />
        <dc:title />
      </cc:Work>
    </rdf:RDF>
  </metadata>
  <defs
     id="defs4">
    <linearGradient
       id="linearGradient4402">
      <stop
         id="stop4404"
         offset="0"
         style="stop-color:#000000;stop-opacity:0.23921569" />
      <stop
         id="stop4406"
         offset="1"
         style="stop-color:#000000;stop-opacity:0.31764707" />
    </linearGradient>
    <linearGradient
       id="linearGradient10691">
      <stop
         id="stop10693"
         offset="0" />
      <stop
         id="stop10695"
         style="stop-opacity:0"
         offset="1" />
    </linearGradient>
    <linearGradient
       id="linearGradient6602">
      <stop
         id="stop6604"
         style="stop-color:#fff"
         offset="0" />
      <stop
         id="stop6606"
         style="stop-color:#fff;stop-opacity:0"
         offset="1" />
    </linearGradient>
    <linearGradient
       id="linearGradient5732"
       y2="89.75"
       xlink:href="#linearGradient6602"
       gradientUnits="userSpaceOnUse"
       x2="320.5"
       gradientTransform="translate(-295.98 -40)"
       y1="79.188"
       x1="317" />
    <linearGradient
       id="linearGradient2762"
       y2="93.916"
       gradientUnits="userSpaceOnUse"
       x2="319.39"
       gradientTransform="matrix(.91670 0 0 .81537 -269.32 -30.938)"
       y1="85.62"
       x1="316.86">
      <stop
         id="stop4576"
         style="stop-color:#282828"
         offset="0" />
      <stop
         id="stop4578"
         style="stop-color:#5a5c58"
         offset="1" />
    </linearGradient>
    <linearGradient
       id="linearGradient2766"
       y2="416.83"
       gradientUnits="userSpaceOnUse"
       x2="145.44"
       gradientTransform="matrix(.18758 0 0 .15853 -3.2911 -19.079)"
       y1="372.67"
       x1="145.44">
      <stop
         id="stop7257"
         style="stop-color:#fff"
         offset="0" />
      <stop
         id="stop7259"
         style="stop-color:#e6e6e6"
         offset="1" />
    </linearGradient>
    <radialGradient
       id="radialGradient2769"
       xlink:href="#linearGradient10691"
       gradientUnits="userSpaceOnUse"
       cy="73.616"
       cx="6.7027"
       gradientTransform="matrix(3.4586 -.0000047697 3.9259e-7 .27669 .81816 25.632)"
       r="7.2284" />
    <linearGradient
       id="linearGradient2780"
       y2="31.983"
       gradientUnits="userSpaceOnUse"
       x2="20.104"
       gradientTransform="matrix(0.98028936,0,0,0.96870968,0.4720795,0.50012065)"
       y1="-.00049710"
       x1="20.147">
      <stop
         id="stop6546"
         style="stop-color:#f0f0f0"
         offset="0" />
      <stop
         id="stop6548"
         style="stop-color:#d2d2d2"
         offset="1" />
    </linearGradient>
    <radialGradient
       id="radialGradient2792"
       xlink:href="#linearGradient10691"
       gradientUnits="userSpaceOnUse"
       cy="73.616"
       cx="6.7027"
       gradientTransform="matrix(1.9368 0 0 .41503 11.018 7.4474)"
       r="7.2284" />
    <linearGradient
       id="linearGradient4850">
      <stop
         offset="0"
         style="stop-color:#ffffff;stop-opacity:1"
         id="stop4852" />
      <stop
         offset="0"
         style="stop-color:#ffffff;stop-opacity:0.23529412"
         id="stop4854" />
      <stop
         offset="0.96892834"
         style="stop-color:#ffffff;stop-opacity:0.15686275"
         id="stop4856" />
      <stop
         offset="1"
         style="stop-color:#ffffff;stop-opacity:0.39215687"
         id="stop4858" />
    </linearGradient>
    <linearGradient
       id="linearGradient4691">
      <stop
         id="stop4693"
         style="stop-color:#ffffff;stop-opacity:1"
         offset="0" />
      <stop
         id="stop4695"
         style="stop-color:#ffffff;stop-opacity:0.23529412"
         offset="0" />
      <stop
         id="stop4697"
         style="stop-color:#ffffff;stop-opacity:0.15686275"
         offset="1" />
      <stop
         id="stop4699"
         style="stop-color:#ffffff;stop-opacity:0.39215687"
         offset="1" />
    </linearGradient>
    <linearGradient
       id="linearGradient3080"
       y2="94.126"
       gradientUnits="userSpaceOnUse"
       x2="320.03"
       gradientTransform="matrix(1.0897541,0,0,0.88549159,-324.76893,-45.181719)"
       y1="82.323402"
       x1="320.03">
      <stop
         id="stop3205"
         style="stop-color:#787878"
         offset="0" />
      <stop
         id="stop3207"
         style="stop-color:#bebebe"
         offset=".35047" />
      <stop
         id="stop3209"
         style="stop-color:#c8c8c8"
         offset="0.62510502" />
      <stop
         id="stop3211"
         style="stop-color:#e6e6e6"
         offset="0.72935736" />
      <stop
         id="stop3213"
         style="stop-color:#8c8c8c"
         offset="1" />
    </linearGradient>
    <linearGradient
       y2="40.265266"
       x2="25.004524"
       y1="51.228981"
       x1="25.004524"
       gradientTransform="matrix(1.0242156,0,0,0.69699789,-0.51537762,1.3428225)"
       gradientUnits="userSpaceOnUse"
       id="linearGradient3152-7"
       xlink:href="#linearGradient4850" />
    <linearGradient
       x1="23.999992"
       y1="5.6417451"
       x2="23.999992"
       y2="42.358315"
       id="linearGradient3093-0"
       xlink:href="#linearGradient4691"
       gradientUnits="userSpaceOnUse"
       gradientTransform="matrix(1.1719903,0,0,0.76259846,-4.1277571,-2.3023862)" />
    <linearGradient
       x1="35.792694"
       y1="16.344582"
       x2="35.792694"
       y2="57.823132"
       id="linearGradient12481-7"
       xlink:href="#radialGradient2444-8"
       gradientUnits="userSpaceOnUse"
       gradientTransform="matrix(0.86439129,0,0,0.92453258,2.5034119,-12.254881)" />
    <radialGradient
       id="radialGradient2444-8"
       gradientUnits="userSpaceOnUse"
       cy="14.113"
       cx="63.969002"
       gradientTransform="matrix(1.5647,-9.5143e-8,6.1772e-8,1.0159,-59.14917,8.1461003)"
       r="23.097">
      <stop
         id="stop3618-4"
         style="stop-color:#ADC980"
         offset="0" />
      <stop
         id="stop3270-5"
         style="stop-color:#87A752"
         offset="0.52338964" />
      <stop
         id="stop3620-0"
         style="stop-color:#688933"
         offset="1" />
    </radialGradient>
    <linearGradient
       gradientUnits="userSpaceOnUse"
       y2="31.460361"
       x2="26.534502"
       y1="0.68323833"
       x1="26.534502"
       id="linearGradient4408"
       xlink:href="#linearGradient4402" />
    <linearGradient
       y2="46.589302"
       x2="26.878342"
       y1="40.224785"
       x1="26.878342"
       gradientUnits="userSpaceOnUse"
       id="linearGradient4472"
       xlink:href="#linearGradient4402" />
  </defs>
  <path
     id="path2589"
     style="opacity:0.3;fill:url(#radialGradient2792)"
     d="m38 38c0 1.657-6.268 3-14 3s-14-1.343-14-3 6.268-3 14-3 14 1.343 14 3z" />
  <path
     id="path4675"
     style="stroke-linejoin:round;stroke-width:0.99826998;stroke-dashoffset:0.5;stroke:none;stroke-linecap:round;enable-background:new;fill:url(#linearGradient3080);color:#000000;clip-rule:nonzero;display:inline;overflow:visible;visibility:visible;opacity:1;isolation:auto;mix-blend-mode:normal;color-interpolation:sRGB;color-interpolation-filters:linearRGB;solid-color:#000000;solid-opacity:1;fill-opacity:1;fill-rule:nonzero;stroke-miterlimit:4;stroke-dasharray:none;stroke-opacity:1;filter-blend-mode:normal;filter-gaussianBlur-deviation:0;color-rendering:auto;image-rendering:auto;shape-rendering:auto;text-rendering:auto"
     d="m18.489 26.499v7.001c-0.022 1.802-1.869 3-1.869 3-0.749 0.089-1.121 0.447-1.121 1.001s0.504 1 1.121 1h14.76c0.617 0 1.121-0.446 1.121-1s-0.372-0.912-1.121-1.001c0 0-1.847-1.198-1.869-3v-7.001h-11.022z" />
  <path
     id="path6096"
     style="opacity:.5;fill:url(#radialGradient2769)"
     d="m48 46c0 1.105-10.745 2-24 2s-24-0.895-24-2 10.745-2 24-2 24 0.895 24 2z" />
  <path
     id="path3698"
     style="stroke-width:0.996;stroke-dashoffset:0.3612;stroke:none;stroke-linecap:square;enable-background:new;fill:url(#linearGradient2766)"
     d="m5.8707 40.498c-0.2642 0.023-0.4947 0.154-0.6213 0.352l-2.6788 4.181c-0.0629 0.1-0.096 0.214-0.0938 0.327-0.0002-0.013-0.0007-0.009 0 0.01v0.465 0.05c-0.0008 0.069 0.0238 0.136 0.0703 0.193 0.0143 0.035 0.0138 0.06 0.0411 0.099 0.1425 0.201 0.4028 0.326 0.6858 0.327h41.425c0.283 0.001 0.546-0.124 0.691-0.332 0.062-0.088 0.082-0.17 0.094-0.233 0.022-0.107 0.018-0.183 0.018-0.183v-0.01-0.332c0-0.094-0.001-0.24-0.1-0.391l-2.784-4.181h-0.006c-0.144-0.214-0.413-0.345-0.703-0.342h-35.939-0.0172c-0.0208-0.001-0.0378-0.001-0.0587 0h-0.0234z" />
  <path
     id="path3702"
     style="opacity:.83105;fill-rule:evenodd;enable-background:new;fill:#1e1e1e"
     d="m7.0911 39.999l-2.3208 5.07 24.812-0.006-0.655-5.064h-21.836 0.0001zm22.97 0l0.36 2.568h4.85l-0.679-2.568h-4.531zm5.667 0.811l1.3 4.253h6.244l-1.996-4.253h-5.548zm-3.515 2.43l0.128 0.81h-1.595l0.162 1.013h5.1l-0.319-1.013h-1.636l-0.203-0.81h-1.637z" />
  <path
     id="path3704"
     style="enable-background:new;fill:url(#linearGradient2762);fill-rule:evenodd"
     d="m7.0911 39.999l-2.3208 4.077 24.812-0.005-0.655-4.072h-21.836 0.0001zm22.97 0l0.36 2.065h4.85l-0.679-2.065h-4.531zm5.667 0.652l1.3 3.42h6.244l-1.996-3.42h-5.548zm-3.515 1.954l0.128 0.652h-1.595l0.162 0.814h5.1l-0.319-0.814h-1.636l-0.203-0.652h-1.637z" />
  <g
     id="g7196"
     transform="translate(-.0000065399 -.00012224)">
    <rect
       id="rect4584"
       style="opacity:.5;enable-background:new;fill:url(#linearGradient5732)"
       rx=".28125"
       ry=".28125"
       height="1"
       width="1"
       y="42"
       x="6.0211" />
    <rect
       id="rect4586"
       style="opacity:.5;enable-background:new;fill:url(#linearGradient5732)"
       rx=".28125"
       ry=".28125"
       height="1"
       width="1"
       y="43"
       x="5.0211" />
    <rect
       id="rect4590"
       style="opacity:.5;enable-background:new;fill:url(#linearGradient5732)"
       rx=".28125"
       ry=".28125"
       height="1"
       width="1"
       y="41"
       x="7.0211" />
    <rect
       id="rect4592"
       style="opacity:.5;enable-background:new;fill:url(#linearGradient5732)"
       rx=".28125"
       ry=".28125"
       height="1"
       width="1"
       y="43"
       x="7.0211" />
    <rect
       id="rect4594"
       style="opacity:.5;enable-background:new;fill:url(#linearGradient5732)"
       rx=".28125"
       ry=".28125"
       height="1"
       width="1"
       y="40"
       x="8.0211" />
    <rect
       id="rect4607"
       style="opacity:.5;fill:url(#linearGradient5732)"
       rx=".28125"
       ry=".28125"
       height="1"
       width="1"
       y="40"
       x="10.021" />
    <rect
       id="rect4609"
       style="opacity:.5;enable-background:new;fill:url(#linearGradient5732)"
       rx=".28125"
       ry=".28125"
       height="1"
       width="1"
       y="42"
       x="10.021" />
    <rect
       id="rect4611"
       style="opacity:.5;enable-background:new;fill:url(#linearGradient5732)"
       rx=".28125"
       ry=".28125"
       height="1"
       width="1"
       y="43"
       x="9.0211" />
    <rect
       id="rect4613"
       style="opacity:.5;enable-background:new;fill:url(#linearGradient5732)"
       rx=".28125"
       ry=".28125"
       height="1"
       width="1"
       y="41"
       x="9.0211" />
    <rect
       id="rect4615"
       style="opacity:.5;enable-background:new;fill:url(#linearGradient5732)"
       rx=".28125"
       ry=".28125"
       height="1"
       width="1"
       y="41"
       x="11.021" />
    <rect
       id="rect4619"
       style="opacity:.5;enable-background:new;fill:url(#linearGradient5732)"
       rx=".28125"
       ry=".28125"
       height="1"
       width="1"
       y="40"
       x="12.021" />
    <rect
       id="rect4628"
       style="opacity:.5;enable-background:new;fill:url(#linearGradient5732)"
       rx=".28125"
       ry=".28125"
       height="1"
       width="1"
       y="42"
       x="12.021" />
    <rect
       id="rect4630"
       style="opacity:.5;enable-background:new;fill:url(#linearGradient5732)"
       rx=".28125"
       ry=".28125"
       height="1"
       width="1"
       y="42"
       x="8.0211" />
    <rect
       id="rect4639"
       style="opacity:.5;enable-background:new;fill:url(#linearGradient5732)"
       rx=".28125"
       ry=".28125"
       height="1"
       width="1"
       y="40"
       x="14.021" />
    <rect
       id="rect4641"
       style="opacity:.5;enable-background:new;fill:url(#linearGradient5732)"
       rx=".28125"
       ry=".28125"
       height="1"
       width="1"
       y="42"
       x="14.021" />
    <rect
       id="rect4645"
       style="opacity:.5;enable-background:new;fill:url(#linearGradient5732)"
       rx=".28125"
       ry=".28125"
       height="1"
       width="1"
       y="41"
       x="13.021" />
    <rect
       id="rect4647"
       style="opacity:.5;enable-background:new;fill:url(#linearGradient5732)"
       rx=".28125"
       ry=".28125"
       height="1"
       width="1"
       y="41"
       x="15.021" />
    <rect
       id="rect4651"
       style="opacity:.5;enable-background:new;fill:url(#linearGradient5732)"
       rx=".28125"
       ry=".28125"
       height="1"
       width="1"
       y="40"
       x="16.021" />
    <rect
       id="rect4653"
       style="opacity:.5;enable-background:new;fill:url(#linearGradient5732)"
       rx=".28125"
       ry=".28125"
       height="1"
       width="1"
       y="40"
       x="18.021" />
    <rect
       id="rect4655"
       style="opacity:.5;enable-background:new;fill:url(#linearGradient5732)"
       rx=".28125"
       ry=".28125"
       height="1"
       width="1"
       y="42"
       x="18.021" />
    <rect
       id="rect4659"
       style="opacity:.5;enable-background:new;fill:url(#linearGradient5732)"
       rx=".28125"
       ry=".28125"
       height="1"
       width="1"
       y="41"
       x="17.021" />
    <rect
       id="rect4661"
       style="opacity:.5;enable-background:new;fill:url(#linearGradient5732)"
       rx=".28125"
       ry=".28125"
       height="1"
       width="1"
       y="41"
       x="19.021" />
    <rect
       id="rect4665"
       style="opacity:.5;enable-background:new;fill:url(#linearGradient5732)"
       rx=".28125"
       ry=".28125"
       height="1"
       width="1"
       y="40"
       x="20.021" />
    <rect
       id="rect4667"
       style="opacity:.5;enable-background:new;fill:url(#linearGradient5732)"
       rx=".28125"
       ry=".28125"
       height="1"
       width="1"
       y="42"
       x="20.021" />
    <rect
       id="rect4669"
       style="opacity:.5;enable-background:new;fill:url(#linearGradient5732)"
       rx=".28125"
       ry=".28125"
       height="1"
       width="1"
       y="42"
       x="16.021" />
    <rect
       id="rect4671"
       style="opacity:.5;enable-background:new;fill:url(#linearGradient5732)"
       rx=".28125"
       ry=".28125"
       height="1"
       width="1"
       y="40"
       x="22.021" />
    <rect
       id="rect4673"
       style="opacity:.5;enable-background:new;fill:url(#linearGradient5732)"
       rx=".28125"
       ry=".28125"
       height="1"
       width="1"
       y="42"
       x="22.021" />
    <rect
       id="rect4677"
       style="opacity:.5;enable-background:new;fill:url(#linearGradient5732)"
       rx=".28125"
       ry=".28125"
       height="1"
       width="1"
       y="41"
       x="21.021" />
    <rect
       id="rect4679"
       style="opacity:.5;enable-background:new;fill:url(#linearGradient5732)"
       rx=".28125"
       ry=".28125"
       height="1"
       width="1"
       y="41"
       x="23.021" />
    <rect
       id="rect4683"
       style="opacity:.5;enable-background:new;fill:url(#linearGradient5732)"
       rx=".28125"
       ry=".28125"
       height="1"
       width="1"
       y="40"
       x="24.021" />
    <rect
       id="rect4685"
       style="opacity:.5;enable-background:new;fill:url(#linearGradient5732)"
       rx=".28125"
       ry=".28125"
       height="1"
       width="1"
       y="40"
       x="26.021" />
    <rect
       id="rect4687"
       style="opacity:.5;enable-background:new;fill:url(#linearGradient5732)"
       rx=".28125"
       ry=".28125"
       height="1"
       width="1"
       y="42"
       x="26.021" />
    <rect
       id="rect4689"
       style="opacity:.5;enable-background:new;fill:url(#linearGradient5732)"
       rx=".28125"
       ry=".28125"
       height="1"
       width="1"
       y="43"
       x="25.021" />
    <rect
       id="rect4691"
       style="opacity:.5;enable-background:new;fill:url(#linearGradient5732)"
       rx=".28125"
       ry=".28125"
       height="1"
       width="1"
       y="41"
       x="25.021" />
    <rect
       id="rect4693"
       style="opacity:.5;enable-background:new;fill:url(#linearGradient5732)"
       rx=".28125"
       ry=".28125"
       height="1"
       width="1"
       y="41"
       x="27.021" />
    <rect
       id="rect4695"
       style="opacity:.5;enable-background:new;fill:url(#linearGradient5732)"
       rx=".28125"
       ry=".28125"
       height="1"
       width="1"
       y="43"
       x="27.021" />
    <rect
       id="rect4697"
       style="opacity:.5;enable-background:new;fill:url(#linearGradient5732)"
       rx=".28125"
       ry=".28125"
       height="1"
       width="1"
       y="40"
       x="28.021" />
    <rect
       id="rect4699"
       style="opacity:.5;enable-background:new;fill:url(#linearGradient5732)"
       rx=".28125"
       ry=".28125"
       height="1"
       width="1"
       y="42"
       x="28.021" />
    <rect
       id="rect4701"
       style="opacity:.5;enable-background:new;fill:url(#linearGradient5732)"
       rx=".28125"
       ry=".28125"
       height="1"
       width="1"
       y="42"
       x="24.021" />
    <rect
       id="rect4704"
       style="opacity:.5;enable-background:new;fill:url(#linearGradient5732)"
       rx=".28125"
       ry=".28125"
       height="1"
       width="1"
       y="40"
       x="30.021" />
    <rect
       id="rect4708"
       style="opacity:.5;enable-background:new;fill:url(#linearGradient5732)"
       rx=".28125"
       ry=".28125"
       height="1"
       width="1"
       y="43"
       x="29.021" />
    <rect
       id="rect4712"
       style="opacity:.5;enable-background:new;fill:url(#linearGradient5732)"
       rx=".28125"
       ry=".28125"
       height="1"
       width="1"
       y="41"
       x="31.021" />
    <rect
       id="rect4714"
       style="opacity:.5;enable-background:new;fill:url(#linearGradient5732)"
       rx=".28125"
       ry=".28125"
       height="1"
       width="1"
       y="43"
       x="31.021" />
    <rect
       id="rect4716"
       style="opacity:.5;enable-background:new;fill:url(#linearGradient5732)"
       rx=".28125"
       ry=".28125"
       height="1"
       width="1"
       y="40"
       x="32.021" />
    <rect
       id="rect4718"
       style="opacity:.5;enable-background:new;fill:url(#linearGradient5732)"
       rx=".28125"
       ry=".28125"
       height="1"
       width="1"
       y="40"
       x="34.021" />
    <rect
       id="rect4722"
       style="opacity:.5;enable-background:new;fill:url(#linearGradient5732)"
       rx=".28125"
       ry=".28125"
       height="1"
       width="1"
       y="43"
       x="33.021" />
    <rect
       id="rect4724"
       style="opacity:.5;enable-background:new;fill:url(#linearGradient5732)"
       rx=".28125"
       ry=".28125"
       height="1"
       width="1"
       y="41"
       x="33.021" />
    <rect
       id="rect4728"
       style="opacity:.5;enable-background:new;fill:url(#linearGradient5732)"
       rx=".28125"
       ry=".28125"
       height="1"
       width="1"
       y="43"
       x="35.021" />
    <rect
       id="rect4736"
       style="opacity:.5;enable-background:new;fill:url(#linearGradient5732)"
       rx=".28125"
       ry=".28125"
       height="1"
       width="1"
       y="41"
       x="37.021" />
    <rect
       id="rect4738"
       style="opacity:.5;enable-background:new;fill:url(#linearGradient5732)"
       rx=".28125"
       ry=".28125"
       height="1"
       width="1"
       y="43"
       x="37.021" />
    <rect
       id="rect4744"
       style="opacity:.5;enable-background:new;fill:url(#linearGradient5732)"
       rx=".28125"
       ry=".28125"
       height="1"
       width="1"
       y="42"
       x="40.021" />
    <rect
       id="rect4746"
       style="opacity:.5;enable-background:new;fill:url(#linearGradient5732)"
       rx=".28125"
       ry=".28125"
       height="1"
       width="1"
       y="43"
       x="39.021" />
    <rect
       id="rect4748"
       style="opacity:.5;enable-background:new;fill:url(#linearGradient5732)"
       rx=".28125"
       ry=".28125"
       height="1"
       width="1"
       y="41"
       x="39.021" />
    <rect
       id="rect4750"
       style="opacity:.5;enable-background:new;fill:url(#linearGradient5732)"
       rx=".28125"
       ry=".28125"
       height="1"
       width="1"
       y="41"
       x="41.021" />
    <rect
       id="rect4752"
       style="opacity:.5;enable-background:new;fill:url(#linearGradient5732)"
       rx=".28125"
       ry=".28125"
       height="1"
       width="1"
       y="43"
       x="41.021" />
    <rect
       id="rect4756"
       style="opacity:.5;enable-background:new;fill:url(#linearGradient5732)"
       rx=".28125"
       ry=".28125"
       height="1"
       width="1"
       y="42"
       x="42.021" />
    <rect
       id="rect4758"
       style="opacity:.5;enable-background:new;fill:url(#linearGradient5732)"
       rx=".28125"
       ry=".28125"
       height="1"
       width="1"
       y="42"
       x="38.021" />
  </g>
  <path
     id="path3698-2"
     style="fill:none;stroke:url(#linearGradient4472);stroke-width:1;stroke-linecap:round;stroke-dashoffset:0.5;enable-background:accumulate;color:#000000;clip-rule:nonzero;display:inline;overflow:visible;visibility:visible;opacity:1;isolation:auto;mix-blend-mode:normal;color-interpolation:sRGB;color-interpolation-filters:linearRGB;solid-color:#000000;solid-opacity:1;fill-opacity:1;fill-rule:nonzero;stroke-linejoin:round;stroke-miterlimit:4;stroke-dasharray:none;stroke-opacity:1;filter-blend-mode:normal;filter-gaussianBlur-deviation:0;color-rendering:auto;image-rendering:auto;shape-rendering:auto;text-rendering:auto"
     d="M 5.8707,40.498 C 5.6065,40.521 5.376,40.652 5.2494,40.85 l -2.6788,4.181 c -0.0629,0.1 -0.096,0.214 -0.0938,0.327 -2e-4,-0.013 -7e-4,-0.009 0,0.01 l 0,0.465 0,0.05 c -8e-4,0.069 0.0238,0.136 0.0703,0.193 0.0143,0.035 0.0138,0.06 0.0411,0.099 0.1425,0.201 0.4028,0.326 0.6858,0.327 l 41.425,0 c 0.283,10e-4 0.546,-0.124 0.691,-0.332 0.062,-0.088 0.082,-0.17 0.094,-0.233 0.022,-0.107 0.018,-0.183 0.018,-0.183 l 0,-0.01 0,-0.332 c 0,-0.094 -0.001,-0.24 -0.1,-0.391 l -2.784,-4.181 -0.006,0 c -0.144,-0.214 -0.413,-0.345 -0.703,-0.342 l -35.939,0 -0.0172,0 c -0.0208,-10e-4 -0.0378,-10e-4 -0.0587,0 l -0.0234,0 z" />
  <path
     id="path4675-3"
     style="fill:none;stroke:#000000;stroke-width:0.99827462;stroke-linecap:round;stroke-linejoin:round;stroke-dashoffset:0.5;enable-background:new;color:#000000;clip-rule:nonzero;display:inline;overflow:visible;visibility:visible;opacity:0.25;isolation:auto;mix-blend-mode:normal;color-interpolation:sRGB;color-interpolation-filters:linearRGB;solid-color:#000000;solid-opacity:1;fill-opacity:1;fill-rule:nonzero;stroke-miterlimit:4;stroke-dasharray:none;stroke-opacity:1;marker:none;filter-blend-mode:normal;filter-gaussianBlur-deviation:0;color-rendering:auto;image-rendering:auto;shape-rendering:auto;text-rendering:auto"
     d="m 18.489,26.499 0,7.001 c -0.022,1.802 -1.869,3 -1.869,3 -0.749,0.089 -1.121,0.447 -1.121,1.001 0,0.554 0.504,1 1.121,1 l 14.76,0 c 0.617,0 1.121,-0.446 1.121,-1 0,-0.554 -0.372,-0.912 -1.121,-1.001 0,0 -1.847,-1.198 -1.869,-3 l 0,-7.001 -11.022,0 z" />
  <path
     d="m 19.451172,27.460938 0,6.039062 a 0.96284677,0.96284677 0 0 1 0,0.01172 c -0.02997,2.454556 -2.308594,3.796875 -2.308594,3.796875 a 0.96284677,0.96284677 0 0 1 -0.410156,0.146484 c -0.171258,0.02035 -0.184005,0.04189 -0.216797,0.05859 0.01346,0.01145 0.0031,0.02539 0.103516,0.02539 l 14.761718,0 c 0.100382,0 0.09006,-0.01394 0.103516,-0.02539 -0.03279,-0.0167 -0.04554,-0.03824 -0.216797,-0.05859 a 0.96284677,0.96284677 0 0 1 -0.410156,-0.146484 c 0,0 -2.278627,-1.342319 -2.308594,-3.796875 a 0.96284677,0.96284677 0 0 1 0,-0.01172 l 0,-6.039062 -9.097656,0 z"
     id="path4586"
     style="color:#000000;clip-rule:nonzero;display:inline;overflow:visible;visibility:visible;opacity:0.8;isolation:auto;mix-blend-mode:normal;color-interpolation:sRGB;color-interpolation-filters:linearRGB;solid-color:#000000;solid-opacity:1;fill:none;fill-opacity:1;fill-rule:nonzero;stroke:url(#linearGradient3152-7);stroke-width:0.99999994;stroke-linecap:round;stroke-linejoin:round;stroke-miterlimit:4;stroke-dasharray:none;stroke-dashoffset:0;stroke-opacity:1;marker:none;color-rendering:auto;image-rendering:auto;shape-rendering:auto;text-rendering:auto;enable-background:accumulate;filter-blend-mode:normal;filter-gaussianBlur-deviation:0" />
  <rect
     id="rect2722"
     style="fill:url(#linearGradient2780);stroke:none;stroke-linecap:round;stroke-linejoin:round;stroke-dashoffset:0.5"
     rx="0.5"
     ry="0.5"
     height="30"
     width="46"
     y="1"
     x="1" />
  <rect
     x="1.5"
     y="1.5"
     width="45"
     height="29"
     style="color:#000000;clip-rule:nonzero;display:inline;overflow:visible;visibility:visible;opacity:1;isolation:auto;mix-blend-mode:normal;color-interpolation:sRGB;color-interpolation-filters:linearRGB;solid-color:#000000;solid-opacity:1;fill:none;fill-opacity:1;fill-rule:nonzero;stroke:url(#linearGradient3093-0);stroke-width:0.99999994;stroke-linecap:round;stroke-linejoin:round;stroke-miterlimit:4;stroke-dasharray:none;stroke-dashoffset:0;stroke-opacity:1;color-rendering:auto;image-rendering:auto;shape-rendering:auto;text-rendering:auto;enable-background:accumulate"
     id="rect2722-7" />
  <rect
     id="rect2722-61"
     style="fill:none;stroke:url(#linearGradient4408);stroke-linecap:round;stroke-linejoin:round;stroke-dashoffset:0.5"
     rx="1"
     ry="1"
     height="31"
     width="47"
     y="0.49989"
     x="0.50002003" />
  <rect
     id="rect2573-3"
     style="color:#000000;clip-rule:nonzero;display:inline;overflow:visible;visibility:visible;opacity:1;isolation:auto;mix-blend-mode:normal;color-interpolation:sRGB;color-interpolation-filters:linearRGB;solid-color:#000000;solid-opacity:1;fill:url(#linearGradient12481-7);fill-opacity:1;fill-rule:nonzero;stroke:none;stroke-width:1;stroke-linecap:butt;stroke-linejoin:miter;stroke-miterlimit:4;stroke-dasharray:none;stroke-dashoffset:0;stroke-opacity:1;marker:none;color-rendering:auto;image-rendering:auto;shape-rendering:auto;text-rendering:auto;enable-background:accumulate"
     rx="0"
     ry="0"
     height="26"
     width="42"
     y="3"
     x="3" />
  <path
     style="display:inline;opacity:0.25;fill:#000000;fill-opacity:1;stroke:none"
     d="M 3,3 3,29 45,29 45,3 3,3 Z m 0.75,0.7222223 40.499999,0 0,24.5555557 -40.499999,0 0,-24.5555557 z"
     id="path3942-6" />
</svg>
