<?xml version="1.0" encoding="UTF-8" standalone="no"?>
<svg
   xmlns:dc="http://purl.org/dc/elements/1.1/"
   xmlns:cc="http://creativecommons.org/ns#"
   xmlns:rdf="http://www.w3.org/1999/02/22-rdf-syntax-ns#"
   xmlns:svg="http://www.w3.org/2000/svg"
   xmlns="http://www.w3.org/2000/svg"
   xmlns:sodipodi="http://sodipodi.sourceforge.net/DTD/sodipodi-0.dtd"
   xmlns:inkscape="http://www.inkscape.org/namespaces/inkscape"
   height="16.01"
   width="16"
   version="1.1"
   id="svg6"
   sodipodi:docname="address-book-new-symbolic.svg"
   inkscape:version="0.92.1 r15371">
  <metadata
     id="metadata12">
    <rdf:RDF>
      <cc:Work
         rdf:about="">
        <dc:format>image/svg+xml</dc:format>
        <dc:type
           rdf:resource="http://purl.org/dc/dcmitype/StillImage" />
      </cc:Work>
    </rdf:RDF>
  </metadata>
  <defs
     id="defs10" />
  <sodipodi:namedview
     pagecolor="#ffffff"
     bordercolor="#666666"
     borderopacity="1"
     objecttolerance="10"
     gridtolerance="10"
     guidetolerance="10"
     inkscape:pageopacity="0"
     inkscape:pageshadow="2"
     inkscape:window-width="725"
     inkscape:window-height="480"
     id="namedview8"
     showgrid="false"
     inkscape:zoom="14.740787"
     inkscape:cx="8"
     inkscape:cy="8.0050001"
     inkscape:window-x="0"
     inkscape:window-y="24"
     inkscape:window-maximized="0"
     inkscape:current-layer="svg6" />
  <g
     color="#000"
     transform="translate(-673 23)"
     id="g4"
     style="fill:#bebebe;fill-opacity:1">
    <path
       d="M676-21.99c-.554 0-1 .446-1 1v12c0 .554.446 1 1 1h6V-9l-5 .01v-12h8.5c.277 0 .5.223.5.5v6.492h1v-6.992c0-.554-.446-1-1-1zm5.488 4.002c-.481-.032-.952.25-1.232.63-.273.492-.05 1.077-.22 1.596-.104.372 0 .768.27 1.037.232.292.517.673.358 1.065-.23.441-.687.7-1.103.935-.11.045-.252.122-.37.213-.106.03-.19.11-.19.225v1.047c0 .138.11.25.25.25h2.732A1.017 1.017 0 0 1 683-12.002h.983v-.53c-.552-.298-1.17-.589-1.479-1.171-.106-.462.219-.867.504-1.188.281-.357.17-.828.072-1.228-.041-.442.101-.966-.228-1.328-.357-.362-.872-.51-1.363-.541zM685-12.98v1.996h-2V-9l2 .014v1.996h2v-1.996h2v-1.998h-2v-1.996z"
       fill="#666"
       overflow="visible"
       style="isolation:auto;mix-blend-mode:normal;marker:none;fill:#bebebe;fill-opacity:1"
       id="path2" />
  </g>
</svg>
