<?xml version="1.0" encoding="UTF-8" standalone="no"?>
<svg
   xmlns:dc="http://purl.org/dc/elements/1.1/"
   xmlns:cc="http://creativecommons.org/ns#"
   xmlns:rdf="http://www.w3.org/1999/02/22-rdf-syntax-ns#"
   xmlns:svg="http://www.w3.org/2000/svg"
   xmlns="http://www.w3.org/2000/svg"
   xmlns:sodipodi="http://sodipodi.sourceforge.net/DTD/sodipodi-0.dtd"
   xmlns:inkscape="http://www.inkscape.org/namespaces/inkscape"
   height="16"
   width="16"
   version="1.1"
   id="svg8"
   sodipodi:docname="appointment-new-symbolic.svg"
   inkscape:version="0.92.1 r15371">
  <metadata
     id="metadata14">
    <rdf:RDF>
      <cc:Work
         rdf:about="">
        <dc:format>image/svg+xml</dc:format>
        <dc:type
           rdf:resource="http://purl.org/dc/dcmitype/StillImage" />
      </cc:Work>
    </rdf:RDF>
  </metadata>
  <defs
     id="defs12" />
  <sodipodi:namedview
     pagecolor="#ffffff"
     bordercolor="#666666"
     borderopacity="1"
     objecttolerance="10"
     gridtolerance="10"
     guidetolerance="10"
     inkscape:pageopacity="0"
     inkscape:pageshadow="2"
     inkscape:window-width="725"
     inkscape:window-height="480"
     id="namedview10"
     showgrid="false"
     inkscape:zoom="14.75"
     inkscape:cx="8"
     inkscape:cy="8"
     inkscape:window-x="0"
     inkscape:window-y="24"
     inkscape:window-maximized="0"
     inkscape:current-layer="svg8" />
  <g
     transform="translate(-693 23)"
     id="g6"
     style="fill:#bebebe;fill-opacity:1">
    <path
       color="#000"
       d="M700.5-23c-4.13 0-7.5 3.37-7.5 7.5s3.37 7.5 7.5 7.5c.514 0 1.015-.051 1.5-.15v-2.06c-.477.133-.979.21-1.5.21-3.05 0-5.5-2.45-5.5-5.5s2.45-5.5 5.5-5.5a5.485 5.485 0 0 1 5.29 7h2.06c.099-.485.15-.986.15-1.5 0-4.13-3.37-7.5-7.5-7.5zm2.965 4.002a.5.5 0 0 0-.072.008v.008a.5.5 0 0 0-.25.156l-2.657 2.649-1.656-1.649a.5.5 0 1 0-.687.688l2 2a.5.5 0 0 0 .687 0l3-3a.5.5 0 0 0-.365-.86z"
       fill="#666"
       font-family="sans-serif"
       font-weight="400"
       overflow="visible"
       style="line-height:normal;font-variant-ligatures:normal;font-variant-position:normal;font-variant-caps:normal;font-variant-numeric:normal;font-variant-alternates:normal;font-feature-settings:normal;text-indent:0;text-align:start;text-decoration-line:none;text-decoration-style:solid;text-decoration-color:#000;text-transform:none;text-orientation:mixed;shape-padding:0;isolation:auto;mix-blend-mode:normal;fill:#bebebe;fill-opacity:1"
       white-space="normal"
       id="path2" />
    <path
       color="#bebebe"
       d="M705-12.997v1.996h-2v1.998h2v1.996h2v-1.996h2v-1.998h-2v-1.996z"
       fill="#666"
       overflow="visible"
       style="marker:none;fill:#bebebe;fill-opacity:1"
       id="path4" />
  </g>
</svg>
