<?xml version="1.0" encoding="UTF-8" standalone="no"?>
<svg
   xmlns:dc="http://purl.org/dc/elements/1.1/"
   xmlns:cc="http://creativecommons.org/ns#"
   xmlns:rdf="http://www.w3.org/1999/02/22-rdf-syntax-ns#"
   xmlns:svg="http://www.w3.org/2000/svg"
   xmlns="http://www.w3.org/2000/svg"
   xmlns:sodipodi="http://sodipodi.sourceforge.net/DTD/sodipodi-0.dtd"
   xmlns:inkscape="http://www.inkscape.org/namespaces/inkscape"
   height="16"
   width="16"
   version="1.1"
   id="svg6"
   sodipodi:docname="color-select-symbolic.svg"
   inkscape:version="0.92.1 r15371">
  <metadata
     id="metadata12">
    <rdf:RDF>
      <cc:Work
         rdf:about="">
        <dc:format>image/svg+xml</dc:format>
        <dc:type
           rdf:resource="http://purl.org/dc/dcmitype/StillImage" />
      </cc:Work>
    </rdf:RDF>
  </metadata>
  <defs
     id="defs10" />
  <sodipodi:namedview
     pagecolor="#ffffff"
     bordercolor="#666666"
     borderopacity="1"
     objecttolerance="10"
     gridtolerance="10"
     guidetolerance="10"
     inkscape:pageopacity="0"
     inkscape:pageshadow="2"
     inkscape:window-width="725"
     inkscape:window-height="480"
     id="namedview8"
     showgrid="false"
     inkscape:zoom="14.75"
     inkscape:cx="8"
     inkscape:cy="8"
     inkscape:window-x="0"
     inkscape:window-y="24"
     inkscape:window-maximized="0"
     inkscape:current-layer="svg6" />
  <g
     transform="translate(-593 -17)"
     id="g4"
     style="fill:#bebebe;fill-opacity:1">
    <path
       color="#000"
       d="M604.25 17c-1.034 0-1.905.594-2.375 1.438l-.156-.157-1.156-.25-.969.969.688.719 1 1L597 25l-1 2.438.5.562 2.5-1 4.282-4.281 1 1 .718.687 1.125-1.125-.406-1-.156-.156c.843-.47 1.437-1.341 1.437-2.375a2.75 2.75 0 0 0-2.75-2.75zm-2.468 4.219l1 1L600 25h-2zm-6.125 6.875s-1.813 2.476-1.813 3.343c0 .868.726 1.563 1.594 1.563.868 0 1.562-.695 1.562-1.563 0-.867-1.343-3.343-1.343-3.343z"
       fill="#666"
       overflow="visible"
       style="marker:none;fill:#bebebe;fill-opacity:1"
       id="path2" />
  </g>
</svg>
