<?xml version="1.0" encoding="UTF-8" standalone="no"?>
<svg
   xmlns:dc="http://purl.org/dc/elements/1.1/"
   xmlns:cc="http://creativecommons.org/ns#"
   xmlns:rdf="http://www.w3.org/1999/02/22-rdf-syntax-ns#"
   xmlns:svg="http://www.w3.org/2000/svg"
   xmlns="http://www.w3.org/2000/svg"
   xmlns:sodipodi="http://sodipodi.sourceforge.net/DTD/sodipodi-0.dtd"
   xmlns:inkscape="http://www.inkscape.org/namespaces/inkscape"
   height="16"
   width="16"
   version="1.1"
   id="svg8"
   sodipodi:docname="document-save-symbolic.svg"
   inkscape:version="0.92.1 r15371">
  <metadata
     id="metadata14">
    <rdf:RDF>
      <cc:Work
         rdf:about="">
        <dc:format>image/svg+xml</dc:format>
        <dc:type
           rdf:resource="http://purl.org/dc/dcmitype/StillImage" />
      </cc:Work>
    </rdf:RDF>
  </metadata>
  <defs
     id="defs12" />
  <sodipodi:namedview
     pagecolor="#ffffff"
     bordercolor="#666666"
     borderopacity="1"
     objecttolerance="10"
     gridtolerance="10"
     guidetolerance="10"
     inkscape:pageopacity="0"
     inkscape:pageshadow="2"
     inkscape:window-width="725"
     inkscape:window-height="480"
     id="namedview10"
     showgrid="false"
     inkscape:zoom="14.75"
     inkscape:cx="8"
     inkscape:cy="8"
     inkscape:window-x="0"
     inkscape:window-y="24"
     inkscape:window-maximized="0"
     inkscape:current-layer="svg8" />
  <g
     transform="translate(-613 23)"
     id="g6"
     style="fill:#bebebe;fill-opacity:1">
    <path
       color="#bebebe"
       d="M615-9v-12c0-1 1-1 1-1h10s1 0 1 1v12c0 1-1 1-1 1h-10s-1 0-1-1zm1-.5c0 .5.5.5.5.5h9s.5 0 .5-.5v-11c0-.5-.5-.5-.5-.5h-9c-.5 0-.5.5-.5.5z"
       fill="#666"
       overflow="visible"
       style="marker:none;fill:#bebebe;fill-opacity:1"
       id="path2" />
    <path
       color="#000"
       d="M620.406-18a.517.517 0 0 0-.406.5v2.5h-1.5c-.369.011-.606.524-.375.813l2.5 3a.522.522 0 0 0 .75 0l2.5-3c.231-.289-.006-.802-.375-.813H622v-2.5a.52.52 0 0 0-.5-.5h-1a.506.506 0 0 0-.094 0z"
       fill="#666"
       font-family="Sans"
       font-weight="400"
       overflow="visible"
       style="line-height:normal;-inkscape-font-specification:Sans;text-indent:0;text-align:start;text-decoration-line:none;text-transform:none;marker:none;fill:#bebebe;fill-opacity:1"
       id="path4" />
  </g>
</svg>
