<?xml version="1.0" encoding="UTF-8" standalone="no"?>
<svg
   xmlns:dc="http://purl.org/dc/elements/1.1/"
   xmlns:cc="http://creativecommons.org/ns#"
   xmlns:rdf="http://www.w3.org/1999/02/22-rdf-syntax-ns#"
   xmlns:svg="http://www.w3.org/2000/svg"
   xmlns="http://www.w3.org/2000/svg"
   xmlns:sodipodi="http://sodipodi.sourceforge.net/DTD/sodipodi-0.dtd"
   xmlns:inkscape="http://www.inkscape.org/namespaces/inkscape"
   height="16.007"
   width="16"
   version="1.1"
   id="svg8"
   sodipodi:docname="document-print-symbolic.svg"
   inkscape:version="0.92.1 r15371">
  <metadata
     id="metadata14">
    <rdf:RDF>
      <cc:Work
         rdf:about="">
        <dc:format>image/svg+xml</dc:format>
        <dc:type
           rdf:resource="http://purl.org/dc/dcmitype/StillImage" />
      </cc:Work>
    </rdf:RDF>
  </metadata>
  <defs
     id="defs12" />
  <sodipodi:namedview
     pagecolor="#ffffff"
     bordercolor="#666666"
     borderopacity="1"
     objecttolerance="10"
     gridtolerance="10"
     guidetolerance="10"
     inkscape:pageopacity="0"
     inkscape:pageshadow="2"
     inkscape:window-width="725"
     inkscape:window-height="480"
     id="namedview10"
     showgrid="false"
     inkscape:zoom="14.74355"
     inkscape:cx="8"
     inkscape:cy="8.0035"
     inkscape:window-x="0"
     inkscape:window-y="24"
     inkscape:window-maximized="0"
     inkscape:current-layer="svg8" />
  <g
     transform="translate(-553 3.003)"
     id="g6"
     style="fill:#bebebe;fill-opacity:1">
    <path
       color="#000"
       d="M556.938-2.997c-.36.047-.938.25-.938 1v2s-1 0-1 1v3h-1s-1 0-1 1v5.5c0 .5.5.5.5.5h.5c0 1 1 1 1 1s0 1 1 1h10c1 0 1-1 1-1s1 0 1-1h.5c.5 0 .5-.419.5-.5v-5.5c0-1-1-1-1-1h-1v-3c0-1-1-1-1-1v-2c0-1-1-1-1.187-1h-7.625c-.047 0-.13-.015-.25 0zm.062 1h8v6h-8zm-2.437 7a.255.255 0 0 1 .094 0h12.687s.656 0 .656.563v4.437h-14V5.566c0-.422.378-.536.563-.563zm1.437 6h10v1h-10z"
       fill="#666"
       font-family="Sans"
       font-weight="400"
       overflow="visible"
       style="line-height:normal;-inkscape-font-specification:Sans;text-indent:0;text-align:start;text-decoration-line:none;text-transform:none;marker:none;fill:#bebebe;fill-opacity:1"
       id="path2" />
    <path
       d="M556 5.003v4h10v-4z"
       fill="#666"
       opacity=".5"
       id="path4"
       style="fill:#bebebe;fill-opacity:1" />
  </g>
</svg>
