<?xml version="1.0" encoding="UTF-8" standalone="no"?>
<svg
   xmlns:dc="http://purl.org/dc/elements/1.1/"
   xmlns:cc="http://creativecommons.org/ns#"
   xmlns:rdf="http://www.w3.org/1999/02/22-rdf-syntax-ns#"
   xmlns:svg="http://www.w3.org/2000/svg"
   xmlns="http://www.w3.org/2000/svg"
   xmlns:sodipodi="http://sodipodi.sourceforge.net/DTD/sodipodi-0.dtd"
   xmlns:inkscape="http://www.inkscape.org/namespaces/inkscape"
   height="16"
   width="16"
   version="1.1"
   id="svg8"
   sodipodi:docname="document-page-setup-symbolic.svg"
   inkscape:version="0.92.1 r15371">
  <metadata
     id="metadata14">
    <rdf:RDF>
      <cc:Work
         rdf:about="">
        <dc:format>image/svg+xml</dc:format>
        <dc:type
           rdf:resource="http://purl.org/dc/dcmitype/StillImage" />
      </cc:Work>
    </rdf:RDF>
  </metadata>
  <defs
     id="defs12" />
  <sodipodi:namedview
     pagecolor="#ffffff"
     bordercolor="#666666"
     borderopacity="1"
     objecttolerance="10"
     gridtolerance="10"
     guidetolerance="10"
     inkscape:pageopacity="0"
     inkscape:pageshadow="2"
     inkscape:window-width="725"
     inkscape:window-height="480"
     id="namedview10"
     showgrid="false"
     inkscape:zoom="14.75"
     inkscape:cx="8"
     inkscape:cy="8"
     inkscape:window-x="0"
     inkscape:window-y="24"
     inkscape:window-maximized="0"
     inkscape:current-layer="svg8" />
  <g
     transform="translate(-573 23)"
     id="g6"
     style="fill:#bebebe;fill-opacity:1">
    <path
       color="#bebebe"
       d="M576-22s-1 0-1 1v2.006l1 .584v-2.09s0-.5.5-.5h9s.5 0 .5.5v11c0 .5-.5.5-.5.5h-9s-.5 0-.5-.5V-11h-1v2c0 1 1 1 1 1h10s1 0 1-1v-12c0-1-1-1-1-1z"
       fill="#666"
       overflow="visible"
       style="marker:none;fill:#bebebe;fill-opacity:1"
       id="path2" />
    <path
       d="M573-19v7h12.02zm2 3.054l3.116 1.977H575z"
       fill="#666"
       id="path4"
       style="fill:#bebebe;fill-opacity:1" />
  </g>
</svg>
