<?xml version="1.0" encoding="UTF-8" standalone="no"?>
<svg
   xmlns:dc="http://purl.org/dc/elements/1.1/"
   xmlns:cc="http://creativecommons.org/ns#"
   xmlns:rdf="http://www.w3.org/1999/02/22-rdf-syntax-ns#"
   xmlns:svg="http://www.w3.org/2000/svg"
   xmlns="http://www.w3.org/2000/svg"
   xmlns:sodipodi="http://sodipodi.sourceforge.net/DTD/sodipodi-0.dtd"
   xmlns:inkscape="http://www.inkscape.org/namespaces/inkscape"
   height="16"
   width="16"
   version="1.1"
   id="svg6"
   sodipodi:docname="document-export-symbolic.svg"
   inkscape:version="0.92.1 r15371">
  <metadata
     id="metadata12">
    <rdf:RDF>
      <cc:Work
         rdf:about="">
        <dc:format>image/svg+xml</dc:format>
        <dc:type
           rdf:resource="http://purl.org/dc/dcmitype/StillImage" />
      </cc:Work>
    </rdf:RDF>
  </metadata>
  <defs
     id="defs10" />
  <sodipodi:namedview
     pagecolor="#ffffff"
     bordercolor="#666666"
     borderopacity="1"
     objecttolerance="10"
     gridtolerance="10"
     guidetolerance="10"
     inkscape:pageopacity="0"
     inkscape:pageshadow="2"
     inkscape:window-width="725"
     inkscape:window-height="480"
     id="namedview8"
     showgrid="false"
     inkscape:zoom="14.75"
     inkscape:cx="8"
     inkscape:cy="8"
     inkscape:window-x="0"
     inkscape:window-y="24"
     inkscape:window-maximized="0"
     inkscape:current-layer="svg6" />
  <g
     color="#bebebe"
     transform="translate(-533 35)"
     id="g4"
     style="fill:#bebebe;fill-opacity:1">
    <path
       d="M546-33s1 0 1 1v2.633l-1-.832V-31.5s0-.5-.5-.5h-9s-.5 0-.5.5v9c0 .5.5.5.5.5h9s.5 0 .5-.5v-1.3l1-.833V-22c0 1-1 1-1 1h-10s-1 0-1-1v-10c0-1 1-1 1-1zm-1.42 3.035a.423.423 0 0 1 .249.09l3 2.5a.522.522 0 0 1 0 .75l-3 2.5c-.288.23-.801-.006-.813-.375V-26h-3.5a.517.517 0 0 1-.5-.406.489.489 0 0 1 0-.094v-1c0-.262.239-.5.5-.5h3.5v-1.5c.008-.277.298-.478.565-.465z"
       fill="#666"
       overflow="visible"
       style="marker:none;fill:#bebebe;fill-opacity:1"
       id="path2" />
  </g>
</svg>
