<?xml version="1.0" encoding="UTF-8" standalone="no"?>
<svg
   xmlns:dc="http://purl.org/dc/elements/1.1/"
   xmlns:cc="http://creativecommons.org/ns#"
   xmlns:rdf="http://www.w3.org/1999/02/22-rdf-syntax-ns#"
   xmlns:svg="http://www.w3.org/2000/svg"
   xmlns="http://www.w3.org/2000/svg"
   xmlns:sodipodi="http://sodipodi.sourceforge.net/DTD/sodipodi-0.dtd"
   xmlns:inkscape="http://www.inkscape.org/namespaces/inkscape"
   height="16"
   width="16"
   version="1.1"
   id="svg8"
   sodipodi:docname="document-open-recent-symbolic.svg"
   inkscape:version="0.92.1 r15371">
  <metadata
     id="metadata14">
    <rdf:RDF>
      <cc:Work
         rdf:about="">
        <dc:format>image/svg+xml</dc:format>
        <dc:type
           rdf:resource="http://purl.org/dc/dcmitype/StillImage" />
      </cc:Work>
    </rdf:RDF>
  </metadata>
  <defs
     id="defs12" />
  <sodipodi:namedview
     pagecolor="#ffffff"
     bordercolor="#666666"
     borderopacity="1"
     objecttolerance="10"
     gridtolerance="10"
     guidetolerance="10"
     inkscape:pageopacity="0"
     inkscape:pageshadow="2"
     inkscape:window-width="725"
     inkscape:window-height="480"
     id="namedview10"
     showgrid="false"
     inkscape:zoom="14.75"
     inkscape:cx="8"
     inkscape:cy="8"
     inkscape:window-x="0"
     inkscape:window-y="24"
     inkscape:window-maximized="0"
     inkscape:current-layer="svg8" />
  <g
     color="#bebebe"
     transform="translate(-273 -77)"
     id="g6"
     style="fill:#bebebe;fill-opacity:1">
    <path
       d="M281.885 78c-3.705 0-6.754 2.44-7.087 6H273l2.655 3.333L278.309 84h-1.733c.328-2.596 2.584-4.26 5.31-4.26 2.95 0 5.345 2.356 5.345 5.26s-2.395 5.26-5.346 5.26c-1.6 0-3.038-.694-4.018-1.793l-1.3 1.185A7.145 7.145 0 0 0 281.885 92c3.928 0 7.115-3.136 7.115-7s-3.187-7-7.115-7z"
       fill="#666"
       overflow="visible"
       style="marker:none;fill:#bebebe;fill-opacity:1"
       id="path2" />
    <path
       d="M282.334 80.667h-.667L281 85.333 284.334 88v-.667l-2-2.666z"
       fill="#666"
       overflow="visible"
       style="marker:none;fill:#bebebe;fill-opacity:1"
       id="path4" />
  </g>
</svg>
