<?xml version="1.0" encoding="UTF-8" standalone="no"?>
<svg
   xmlns:dc="http://purl.org/dc/elements/1.1/"
   xmlns:cc="http://creativecommons.org/ns#"
   xmlns:rdf="http://www.w3.org/1999/02/22-rdf-syntax-ns#"
   xmlns:svg="http://www.w3.org/2000/svg"
   xmlns="http://www.w3.org/2000/svg"
   xmlns:sodipodi="http://sodipodi.sourceforge.net/DTD/sodipodi-0.dtd"
   xmlns:inkscape="http://www.inkscape.org/namespaces/inkscape"
   width="16"
   height="16"
   version="1.1"
   id="svg4"
   sodipodi:docname="edit-paste-symbolic.svg"
   inkscape:version="0.92.1 r15371">
  <metadata
     id="metadata10">
    <rdf:RDF>
      <cc:Work
         rdf:about="">
        <dc:format>image/svg+xml</dc:format>
        <dc:type
           rdf:resource="http://purl.org/dc/dcmitype/StillImage" />
      </cc:Work>
    </rdf:RDF>
  </metadata>
  <defs
     id="defs8" />
  <sodipodi:namedview
     pagecolor="#ffffff"
     bordercolor="#666666"
     borderopacity="1"
     objecttolerance="10"
     gridtolerance="10"
     guidetolerance="10"
     inkscape:pageopacity="0"
     inkscape:pageshadow="2"
     inkscape:window-width="725"
     inkscape:window-height="480"
     id="namedview6"
     showgrid="false"
     inkscape:zoom="14.75"
     inkscape:cx="8"
     inkscape:cy="8"
     inkscape:window-x="0"
     inkscape:window-y="24"
     inkscape:window-maximized="0"
     inkscape:current-layer="svg4" />
  <path
     d="M7.45 0C7.2 0 7 .223 7 .5V1H5.5c-.277 0-.5.223-.5.5v1c0 .277.223.5.5.5h5c.277 0 .5-.223.5-.5v-1c0-.277-.223-.5-.5-.5H9V.5c0-.277-.2-.5-.45-.5h-1.1zM2.5 1C1.669 1 1 1.669 1 2.5v12c0 .831.669 1.5 1.5 1.5h11c.831 0 1.5-.669 1.5-1.5v-12c0-.831-.669-1.5-1.5-1.5H12v1h1v7H8v.25A.25.25 0 0 0 7.75 9h-2.5a.25.25 0 0 0-.25.25v.5c0 .139.112.25.25.25h2.5A.25.25 0 0 0 8 9.75V14H3V2h1V1H2.5zm2.75 4a.25.25 0 0 0-.25.25v.5c0 .138.112.25.25.25h5.5a.25.25 0 0 0 .25-.25v-.5a.25.25 0 0 0-.25-.25h-5.5zm0 2a.25.25 0 0 0-.25.25v.5c0 .138.112.25.25.25h5.5a.25.25 0 0 0 .25-.25v-.5a.25.25 0 0 0-.25-.25h-5.5zm3.791 3H13l-3.959 3.959V10z"
     fill="#666"
     id="path2"
     style="fill:#bebebe;fill-opacity:1" />
</svg>
