<?xml version="1.0" encoding="UTF-8" standalone="no"?>
<svg
   xmlns:dc="http://purl.org/dc/elements/1.1/"
   xmlns:cc="http://creativecommons.org/ns#"
   xmlns:rdf="http://www.w3.org/1999/02/22-rdf-syntax-ns#"
   xmlns:svg="http://www.w3.org/2000/svg"
   xmlns="http://www.w3.org/2000/svg"
   xmlns:sodipodi="http://sodipodi.sourceforge.net/DTD/sodipodi-0.dtd"
   xmlns:inkscape="http://www.inkscape.org/namespaces/inkscape"
   height="16"
   width="16"
   version="1.1"
   id="svg6"
   sodipodi:docname="edit-clear-all-symbolic.svg"
   inkscape:version="0.92.1 r15371">
  <metadata
     id="metadata12">
    <rdf:RDF>
      <cc:Work
         rdf:about="">
        <dc:format>image/svg+xml</dc:format>
        <dc:type
           rdf:resource="http://purl.org/dc/dcmitype/StillImage" />
      </cc:Work>
    </rdf:RDF>
  </metadata>
  <defs
     id="defs10" />
  <sodipodi:namedview
     pagecolor="#ffffff"
     bordercolor="#666666"
     borderopacity="1"
     objecttolerance="10"
     gridtolerance="10"
     guidetolerance="10"
     inkscape:pageopacity="0"
     inkscape:pageshadow="2"
     inkscape:window-width="725"
     inkscape:window-height="480"
     id="namedview8"
     showgrid="false"
     inkscape:zoom="14.75"
     inkscape:cx="8"
     inkscape:cy="8"
     inkscape:window-x="0"
     inkscape:window-y="24"
     inkscape:window-maximized="0"
     inkscape:current-layer="svg6" />
  <g
     transform="translate(-673 3)"
     id="g4"
     style="fill:#bebebe;fill-opacity:1">
    <path
       color="#000"
       d="M684.098-2.955c-.558-.041-.89.442-1.114.879l-3.072 5.215c-.613-.365-1.204-.77-1.832-1.109-.526-.32-1.34.012-1.376.646l-.014.763 6.02 3.522c.36-.139.817-.192.956-.626.25-.57-.223-1.09-.712-1.318l-1.339-.828c1.119-1.902 2.243-3.801 3.357-5.706.328-.63-.164-1.44-.874-1.438zm-8.074 7.158c-1.428.55-2.304 2.203-1.927 3.692.322 1.522 1.776 2.504 3.218 2.821 1.826.418 3.828.25 5.685.284h.76c-.987-.154-2.12-.552-2.53-1.547-.283-.68.152-1.53.868-1.697l-6.074-3.553z"
       fill="#666"
       font-family="sans-serif"
       font-weight="400"
       overflow="visible"
       style="line-height:normal;font-variant-ligatures:normal;font-variant-position:normal;font-variant-caps:normal;font-variant-numeric:normal;font-variant-alternates:normal;font-feature-settings:normal;text-indent:0;text-align:start;text-decoration-line:none;text-decoration-style:solid;text-decoration-color:#000;text-transform:none;text-orientation:mixed;shape-padding:0;isolation:auto;mix-blend-mode:normal;marker:none;fill:#bebebe;fill-opacity:1"
       white-space="normal"
       id="path2" />
  </g>
</svg>
