<?xml version="1.0" encoding="UTF-8" standalone="no"?>
<svg
   xmlns:dc="http://purl.org/dc/elements/1.1/"
   xmlns:cc="http://creativecommons.org/ns#"
   xmlns:rdf="http://www.w3.org/1999/02/22-rdf-syntax-ns#"
   xmlns:svg="http://www.w3.org/2000/svg"
   xmlns="http://www.w3.org/2000/svg"
   xmlns:sodipodi="http://sodipodi.sourceforge.net/DTD/sodipodi-0.dtd"
   xmlns:inkscape="http://www.inkscape.org/namespaces/inkscape"
   height="16"
   width="16"
   version="1.1"
   id="svg6"
   sodipodi:docname="edit-find-replace-symbolic.svg"
   inkscape:version="0.92.1 r15371">
  <metadata
     id="metadata12">
    <rdf:RDF>
      <cc:Work
         rdf:about="">
        <dc:format>image/svg+xml</dc:format>
        <dc:type
           rdf:resource="http://purl.org/dc/dcmitype/StillImage" />
      </cc:Work>
    </rdf:RDF>
  </metadata>
  <defs
     id="defs10" />
  <sodipodi:namedview
     pagecolor="#ffffff"
     bordercolor="#666666"
     borderopacity="1"
     objecttolerance="10"
     gridtolerance="10"
     guidetolerance="10"
     inkscape:pageopacity="0"
     inkscape:pageshadow="2"
     inkscape:window-width="725"
     inkscape:window-height="480"
     id="namedview8"
     showgrid="false"
     inkscape:zoom="14.75"
     inkscape:cx="8"
     inkscape:cy="8"
     inkscape:window-x="0"
     inkscape:window-y="24"
     inkscape:window-maximized="0"
     inkscape:current-layer="svg6" />
  <g
     color="#000"
     transform="translate(-633 11)"
     id="g4"
     style="fill:#bebebe;fill-opacity:1">
    <path
       d="M639.5-10c-3.026 0-5.5 2.474-5.5 5.5 0 1.122.344 2.167.926 3.04l.904-.905a4.25 4.25 0 0 1-.58-2.135 4.25 4.25 0 0 1 4.25-4.25 4.25 4.25 0 0 1 2.135.58l.316-.316.354-.354.234-.236A5.46 5.46 0 0 0 639.5-10zm5.713 0a.83.83 0 0 0-.59.246l-.906.912 3.125 3.125.91-.906c.33-.33.33-.85 0-1.18l-1.95-1.95a.83.83 0 0 0-.589-.247zm-2.555 2.22L633.992.888v3.119h3.121l8.665-8.664zm1.514 6.143L642.363.172c.082-.05.17-.092.249-.147l3.681 3.682a1 1 0 1 0 1.414-1.414l-3.681-3.682c.054-.079.096-.166.146-.248zM635 1h1v1h1v1h-2z"
       fill="#666"
       font-family="sans-serif"
       font-weight="400"
       overflow="visible"
       style="line-height:normal;font-variant-ligatures:normal;font-variant-position:normal;font-variant-caps:normal;font-variant-numeric:normal;font-variant-alternates:normal;font-feature-settings:normal;text-indent:0;text-align:start;text-decoration-line:none;text-decoration-style:solid;text-decoration-color:#000;text-transform:none;text-orientation:mixed;shape-padding:0;isolation:auto;mix-blend-mode:normal;fill:#bebebe;fill-opacity:1"
       white-space="normal"
       id="path2" />
  </g>
</svg>
