<?xml version="1.0" encoding="UTF-8" standalone="no"?>
<svg
   xmlns:dc="http://purl.org/dc/elements/1.1/"
   xmlns:cc="http://creativecommons.org/ns#"
   xmlns:rdf="http://www.w3.org/1999/02/22-rdf-syntax-ns#"
   xmlns:svg="http://www.w3.org/2000/svg"
   xmlns="http://www.w3.org/2000/svg"
   xmlns:sodipodi="http://sodipodi.sourceforge.net/DTD/sodipodi-0.dtd"
   xmlns:inkscape="http://www.inkscape.org/namespaces/inkscape"
   height="16"
   width="16"
   version="1.1"
   id="svg6"
   sodipodi:docname="edit-cut-symbolic.svg"
   inkscape:version="0.92.1 r15371">
  <metadata
     id="metadata12">
    <rdf:RDF>
      <cc:Work
         rdf:about="">
        <dc:format>image/svg+xml</dc:format>
        <dc:type
           rdf:resource="http://purl.org/dc/dcmitype/StillImage" />
      </cc:Work>
    </rdf:RDF>
  </metadata>
  <defs
     id="defs10" />
  <sodipodi:namedview
     pagecolor="#ffffff"
     bordercolor="#666666"
     borderopacity="1"
     objecttolerance="10"
     gridtolerance="10"
     guidetolerance="10"
     inkscape:pageopacity="0"
     inkscape:pageshadow="2"
     inkscape:window-width="725"
     inkscape:window-height="480"
     id="namedview8"
     showgrid="false"
     inkscape:zoom="14.75"
     inkscape:cx="8"
     inkscape:cy="8"
     inkscape:window-x="0"
     inkscape:window-y="24"
     inkscape:window-maximized="0"
     inkscape:current-layer="svg6" />
  <g
     transform="translate(-772.993 3)"
     id="g4"
     style="fill:#bebebe;fill-opacity:1">
    <path
       color="#000"
       d="M777-2c-.45 1.8-.527 3.317.5 5l2.604 3.445-.166.297a.5.5 0 0 1-.084.112l-1 1A.5.5 0 0 1 778.5 8H777c-.81 0-1.54.486-1.85 1.234h.003c-.31.75-.14 1.607.433 2.18a1.997 1.997 0 0 0 3.38-1.057c.006-.039.018-.32.034-.357v-.5a.5.5 0 0 1 .2-.4l1.783-1.338 1.783 1.338a.5.5 0 0 1 .2.4v.5c.015.036.027.318.034.357a1.997 1.997 0 0 0 3.379 1.057c.574-.573.744-1.43.434-2.18h.002A1.999 1.999 0 0 0 784.965 8h-1.5a.5.5 0 0 1-.353-.146l-1-1a.5.5 0 0 1-.084-.112l-.16-.289L784.5 3c1.025-1.658.945-3.22.5-5l-4.017 6.861zm3.967 8.226h.018a.25.25 0 1 1-.018 0zM777 9c.547 0 1 .454 1 1s-.453 1-1 1c-.546 0-1-.454-1-1s.454-1 1-1zm7.965 0c.546 0 1 .454 1 1s-.454 1-1 1-1-.454-1-1 .454-1 1-1z"
       fill="#666"
       font-family="sans-serif"
       font-weight="400"
       overflow="visible"
       style="line-height:normal;font-variant-ligatures:normal;font-variant-position:normal;font-variant-caps:normal;font-variant-numeric:normal;font-variant-alternates:normal;font-feature-settings:normal;text-indent:0;text-align:start;text-decoration-line:none;text-decoration-style:solid;text-decoration-color:#000;text-transform:none;text-orientation:mixed;shape-padding:0;isolation:auto;mix-blend-mode:normal;fill:#bebebe;fill-opacity:1"
       white-space="normal"
       id="path2" />
  </g>
</svg>
