<?xml version="1.0" encoding="UTF-8" standalone="no"?>
<svg
   xmlns:dc="http://purl.org/dc/elements/1.1/"
   xmlns:cc="http://creativecommons.org/ns#"
   xmlns:rdf="http://www.w3.org/1999/02/22-rdf-syntax-ns#"
   xmlns:svg="http://www.w3.org/2000/svg"
   xmlns="http://www.w3.org/2000/svg"
   xmlns:sodipodi="http://sodipodi.sourceforge.net/DTD/sodipodi-0.dtd"
   xmlns:inkscape="http://www.inkscape.org/namespaces/inkscape"
   height="16"
   width="16"
   version="1.1"
   id="svg6"
   sodipodi:docname="view-sort-descending-symbolic.svg"
   inkscape:version="0.92.1 r15371">
  <metadata
     id="metadata12">
    <rdf:RDF>
      <cc:Work
         rdf:about="">
        <dc:format>image/svg+xml</dc:format>
        <dc:type
           rdf:resource="http://purl.org/dc/dcmitype/StillImage" />
      </cc:Work>
    </rdf:RDF>
  </metadata>
  <defs
     id="defs10" />
  <sodipodi:namedview
     pagecolor="#ffffff"
     bordercolor="#666666"
     borderopacity="1"
     objecttolerance="10"
     gridtolerance="10"
     guidetolerance="10"
     inkscape:pageopacity="0"
     inkscape:pageshadow="2"
     inkscape:window-width="725"
     inkscape:window-height="480"
     id="namedview8"
     showgrid="false"
     inkscape:zoom="14.75"
     inkscape:cx="8"
     inkscape:cy="8"
     inkscape:window-x="0"
     inkscape:window-y="24"
     inkscape:window-maximized="0"
     inkscape:current-layer="svg6" />
  <g
     transform="translate(-853 -77)"
     id="g4"
     style="fill:#bebebe;fill-opacity:1">
    <path
       color="#000"
       d="M854.385 80a.381.381 0 0 0-.385.379v1.242c0 .21.172.379.385.379h1.23c.214 0 .385-.17.385-.379V80.38a.381.381 0 0 0-.385-.379zM860 80v4h-3.062L862 90l5.188-6H864v-4zm-5.615 4.016a.381.381 0 0 0-.385.379v1.242c0 .21.172.379.385.379h1.23a.381.381 0 0 0 .385-.38v-1.241a.381.381 0 0 0-.385-.38zm0 3.984a.381.381 0 0 0-.385.379v1.242c0 .21.172.379.385.379h1.23c.214 0 .385-.17.385-.379V88.38a.381.381 0 0 0-.385-.379z"
       fill="#666"
       overflow="visible"
       style="marker:none;fill:#bebebe;fill-opacity:1"
       id="path2" />
  </g>
</svg>
